<?xml version="1.0" standalone="no"?>
<!DOCTYPE svg PUBLIC "-//W3C//DTD SVG 20010904//EN"
 "http://www.w3.org/TR/2001/REC-SVG-20010904/DTD/svg10.dtd">
<svg version="1.0" xmlns="http://www.w3.org/2000/svg"
 width="896.000000pt" height="896.000000pt" viewBox="0 0 896.000000 896.000000"
 preserveAspectRatio="xMidYMid meet">
<metadata>
Created by potrace 1.11, written by Peter Selinger 2001-2013
</metadata>
<g transform="translate(0.000000,896.000000) scale(0.100000,-0.100000)"
fill="#000000" stroke="none">
<path d="M3823 8944 c-32 -16 -68 -74 -60 -97 2 -7 1 -19 -4 -28 -4 -8 -10
-33 -12 -55 -3 -21 -11 -59 -18 -84 -7 -25 -12 -48 -11 -53 1 -4 -5 -38 -13
-75 -8 -37 -17 -78 -19 -92 -3 -14 -7 -36 -10 -50 -3 -13 -8 -40 -11 -60 -15
-98 1 -88 -215 -141 -185 -46 -194 -48 -206 -30 -11 15 -87 108 -152 186 -18
21 -193 236 -227 277 -11 14 -34 30 -51 35 -52 18 -74 10 -269 -97 -27 -15
-77 -42 -110 -60 -33 -18 -66 -37 -72 -42 -7 -6 -13 -7 -13 -2 0 5 -4 5 -8 -1
-8 -11 -22 -20 -103 -61 -30 -15 -60 -32 -68 -38 -7 -5 -20 -11 -29 -13 -9 -1
-18 -7 -20 -12 -2 -6 -8 -11 -14 -11 -5 0 -36 -16 -69 -35 -32 -19 -59 -31
-59 -27 0 4 -4 2 -8 -3 -7 -10 -48 -33 -162 -92 -30 -15 -57 -30 -60 -33 -3
-3 -22 -14 -43 -24 -44 -23 -77 -64 -81 -102 -2 -15 6 -54 16 -88 32 -99 99
-320 103 -336 2 -8 4 -15 5 -15 1 0 3 -7 5 -15 6 -25 43 -144 49 -161 5 -11
-15 -34 -66 -79 -70 -62 -100 -89 -161 -144 -20 -19 -33 -24 -45 -17 -9 4 -33
15 -52 24 -19 8 -57 25 -85 38 -27 12 -54 23 -60 25 -5 1 -39 15 -75 32 -36
16 -99 45 -140 62 -41 18 -94 41 -117 51 -89 40 -139 20 -213 -87 -29 -43 -56
-81 -60 -84 -5 -5 -24 -31 -60 -85 -37 -56 -174 -250 -179 -255 -3 -3 -28 -39
-56 -80 -27 -41 -55 -80 -62 -87 -6 -7 -21 -29 -34 -50 -13 -21 -26 -40 -29
-43 -3 -3 -39 -52 -80 -110 -88 -125 -102 -160 -86 -206 9 -28 124 -154 372
-411 29 -29 63 -66 77 -83 l25 -30 -33 -82 c-47 -119 -48 -122 -49 -128 -1 -3
-5 -11 -9 -17 -5 -7 -6 -13 -2 -13 3 0 -2 -17 -11 -37 -17 -42 -23 -64 -30
-107 -6 -40 34 -73 147 -120 52 -21 122 -52 157 -68 34 -15 65 -28 67 -28 2 0
28 -11 57 -24 29 -13 87 -38 128 -56 41 -17 98 -42 126 -55 132 -60 181 -56
208 19 27 71 87 241 90 251 2 6 8 23 14 38 7 16 12 30 12 32 0 2 14 34 32 72
18 37 33 74 34 81 1 7 8 19 14 27 6 8 27 45 46 82 58 116 71 137 173 292 31
46 61 91 66 99 6 9 15 21 20 27 6 7 21 27 35 45 27 36 109 137 150 184 106
122 318 317 465 426 33 25 62 47 65 50 33 34 468 291 500 295 14 1 76 30 81
37 3 5 16 10 27 11 12 1 22 5 22 9 0 4 7 8 15 8 8 0 34 8 58 19 50 22 108 45
122 47 6 1 39 12 75 24 36 12 72 23 81 25 9 2 34 9 55 15 22 6 68 18 104 26
36 8 74 17 85 20 11 2 31 6 45 9 14 3 34 7 45 9 11 2 43 7 70 10 69 10 109 15
153 21 139 21 521 20 677 -1 17 -2 53 -6 80 -10 85 -10 182 -26 203 -33 1 -1
3 -1 5 -2 1 0 16 -3 32 -5 46 -8 268 -64 290 -74 11 -5 54 -20 95 -34 41 -14
100 -34 130 -46 30 -11 69 -26 85 -32 50 -19 346 -172 414 -214 35 -21 71 -43
80 -49 43 -26 116 -80 119 -87 2 -4 10 -8 17 -8 7 0 15 -3 17 -8 2 -4 30 -27
64 -52 33 -25 87 -67 119 -95 83 -71 341 -333 395 -401 25 -31 52 -65 62 -75
9 -9 36 -46 60 -81 23 -34 55 -79 71 -99 15 -20 27 -41 27 -47 0 -7 3 -12 8
-12 7 0 13 -9 42 -66 8 -16 20 -35 27 -41 6 -7 24 -39 40 -70 15 -32 30 -60
33 -63 9 -9 91 -182 122 -260 17 -41 37 -89 44 -107 8 -17 30 -82 50 -145 44
-141 52 -158 78 -158 19 0 124 42 264 106 29 13 54 24 57 24 2 0 34 14 72 31
118 53 127 57 213 94 89 38 123 53 182 79 55 25 70 50 53 91 -8 18 -16 43 -19
56 -5 22 -18 59 -43 119 -6 14 -9 28 -6 33 2 4 -1 7 -6 7 -6 0 -11 6 -11 13 0
8 -11 40 -24 72 l-23 58 21 25 c11 14 37 42 56 62 19 20 73 78 120 130 135
148 203 221 231 251 105 109 103 132 -26 309 -22 30 -42 57 -45 60 -3 3 -9 12
-15 22 -13 21 -377 521 -384 528 -3 3 -10 13 -16 22 -44 73 -163 222 -189 235
-56 30 -72 24 -494 -173 -41 -19 -76 -34 -78 -34 -2 0 -30 -13 -63 -29 l-59
-28 -63 58 c-35 32 -90 82 -122 111 -56 51 -58 54 -47 83 7 17 14 40 16 53 3
13 12 44 20 69 9 25 17 53 19 62 2 9 22 81 45 161 23 80 43 150 44 155 2 6 8
29 15 53 19 68 5 113 -51 157 -12 10 -121 68 -193 103 -16 8 -38 22 -47 30
-10 8 -18 12 -18 7 0 -4 -6 -3 -12 3 -7 5 -42 25 -78 44 -122 65 -245 131
-305 163 -147 80 -174 94 -235 125 -36 19 -83 45 -105 58 -28 18 -54 25 -93
26 -51 0 -55 -2 -95 -45 -23 -25 -58 -65 -77 -89 -19 -25 -45 -55 -57 -68 -13
-12 -23 -27 -23 -32 0 -4 -3 -10 -7 -12 -5 -1 -28 -28 -53 -58 -25 -30 -47
-57 -50 -60 -3 -3 -25 -30 -50 -60 -24 -30 -48 -56 -52 -58 -5 -2 -8 -10 -8
-17 0 -15 -25 -14 -90 6 -25 7 -52 14 -60 16 -8 1 -68 15 -132 31 -65 16 -119
28 -121 26 -4 -4 -22 72 -33 132 -3 16 -9 46 -15 67 -5 20 -7 42 -4 47 3 6 1
10 -5 10 -6 0 -10 10 -9 23 2 12 1 27 -3 32 -3 6 -9 33 -13 60 -5 28 -10 55
-11 60 -6 22 -35 171 -37 187 0 9 -13 31 -28 50 l-28 33 -628 2 c-556 3 -632
1 -660 -13z"/>
<path d="M4368 6854 c-2 -2 -33 -5 -68 -8 -129 -9 -191 -17 -266 -31 -42 -8
-79 -14 -82 -13 -4 1 -25 -4 -47 -10 -22 -6 -51 -13 -65 -15 -44 -8 -199 -55
-280 -85 -8 -3 -17 -6 -20 -7 -3 -1 -16 -6 -30 -12 -14 -6 -45 -19 -70 -29
-75 -30 -264 -129 -339 -178 -39 -25 -74 -45 -77 -45 -4 0 -10 -3 -13 -8 -3
-5 -33 -29 -65 -53 -67 -49 -92 -68 -116 -91 -9 -8 -25 -22 -37 -30 -93 -65
-274 -245 -425 -424 -32 -37 -128 -176 -128 -185 0 -5 -4 -10 -9 -10 -5 0 -14
-13 -21 -30 -7 -16 -17 -30 -23 -30 -6 0 -7 -3 -4 -6 4 -4 -2 -19 -12 -33 -10
-14 -25 -39 -33 -56 -8 -16 -25 -48 -36 -70 -36 -68 -101 -214 -108 -243 -4
-15 -15 -44 -26 -64 -10 -21 -16 -38 -12 -38 4 0 1 -7 -6 -15 -7 -8 -9 -15 -5
-15 4 0 1 -7 -6 -17 -8 -9 -13 -19 -13 -22 2 -7 1 -12 -20 -84 -10 -32 -19
-66 -21 -75 -1 -9 -8 -35 -13 -57 -6 -22 -16 -66 -22 -97 l-11 -58 -175 0
-174 0 -1 73 c-1 39 -1 75 -1 78 1 4 -10 19 -24 34 l-25 27 -182 -7 c-335 -13
-361 -14 -477 -20 -153 -7 -300 -13 -505 -20 -183 -6 -222 -15 -236 -52 -5
-13 -9 -183 -9 -378 0 -321 2 -355 18 -374 9 -12 28 -23 41 -26 24 -4 218 -14
392 -19 53 -2 101 -6 108 -10 6 -4 11 -2 11 4 0 6 5 8 12 4 6 -4 52 -8 102
-10 50 -1 165 -5 256 -9 91 -4 194 -9 230 -10 80 -4 199 -7 223 -6 10 1 29 13
42 27 23 25 25 35 25 120 l0 94 144 0 144 0 -5 -87 c-8 -121 -8 -1193 -1
-1328 6 -113 20 -165 45 -165 8 0 38 22 66 48 68 63 137 116 137 105 0 -4 4
-3 8 2 13 18 65 31 127 33 99 3 232 -56 340 -153 57 -50 106 -60 166 -34 35
16 139 87 159 109 34 38 145 80 190 74 36 -6 82 -26 102 -44 14 -13 32 -70 53
-170 2 -8 12 -53 24 -100 11 -47 23 -98 25 -115 3 -16 17 -40 31 -52 23 -21
35 -22 127 -20 l101 2 2 90 c1 99 10 123 56 156 30 21 42 22 228 23 108 1 214
-2 235 -7 73 -15 104 -70 100 -177 -3 -80 2 -90 42 -90 l34 0 0 86 c0 100 15
141 62 169 29 17 55 19 248 19 205 1 217 0 251 -21 49 -31 60 -61 60 -165 l0
-89 32 3 32 3 1 70 c1 39 2 81 3 95 1 33 49 89 81 96 37 9 400 11 439 3 19 -4
48 -21 64 -37 27 -28 30 -36 33 -118 1 -49 3 -94 3 -101 1 -15 163 -17 209 -2
32 11 51 38 58 84 6 46 23 122 31 145 3 8 7 22 8 30 3 16 14 69 19 85 1 6 6
28 11 50 4 22 11 47 16 57 14 26 93 52 142 45 44 -6 126 -46 147 -72 7 -8 17
-15 22 -15 5 0 23 -14 41 -30 41 -39 123 -80 160 -80 36 0 59 12 121 64 57 47
69 55 151 95 157 78 297 49 434 -90 22 -21 44 -39 49 -39 6 0 12 -5 14 -11 5
-14 35 -1 43 18 14 38 19 254 19 793 0 316 -2 607 -3 645 -2 39 -3 75 -2 81 1
10 304 14 315 4 3 -3 6 -40 7 -83 2 -66 5 -81 25 -101 21 -20 32 -23 91 -20
38 1 138 5 223 9 85 3 198 8 250 10 90 4 187 8 450 20 63 2 173 7 245 11 98 4
134 9 147 21 17 15 18 46 18 387 0 204 -4 376 -8 382 -22 33 -30 34 -417 49
-77 3 -185 8 -240 10 -210 10 -325 15 -465 20 -80 3 -173 7 -206 9 -52 3 -66
0 -90 -19 -25 -20 -29 -30 -30 -77 0 -30 -4 -59 -7 -65 -4 -7 -4 -14 1 -17 5
-3 7 -18 4 -34 l-4 -29 -190 1 -191 1 -12 50 c-7 28 -16 66 -19 86 -3 20 -10
49 -16 65 -6 16 -11 29 -10 29 1 0 -4 20 -11 45 -6 25 -13 52 -15 60 -12 72
-132 374 -202 510 -62 118 -175 299 -234 373 -118 147 -245 282 -363 384 -33
29 -71 62 -85 74 -14 12 -68 54 -120 93 -52 39 -97 74 -100 77 -3 3 -17 12
-31 20 -15 8 -58 33 -95 55 -162 98 -383 195 -549 239 -115 32 -130 35 -164
40 -18 3 -36 7 -40 10 -4 2 -30 7 -57 11 -27 3 -51 8 -54 9 -3 2 -33 7 -65 11
-33 3 -73 9 -90 11 -89 12 -389 25 -397 17z m-322 -2135 c15 -17 17 -72 16
-621 -1 -722 1 -650 -16 -674 -14 -18 -32 -19 -645 -19 -564 0 -633 2 -652 16
l-22 16 1 632 c0 572 2 634 17 651 15 17 50 18 650 18 604 -1 635 -2 651 -19z
m2143 0 c16 -18 18 -62 17 -648 -1 -575 -2 -630 -18 -648 -16 -17 -44 -18
-640 -17 -343 1 -630 2 -639 3 -9 0 -21 12 -27 25 -11 25 -16 1244 -5 1273 3
8 15 18 27 23 12 4 301 8 644 8 598 0 624 -1 641 -19z"/>
<path d="M470 3660 c-131 -4 -154 -7 -152 -20 2 -8 5 -31 7 -50 2 -19 6 -48 9
-65 3 -16 8 -50 11 -75 3 -25 9 -52 12 -60 3 -8 7 -30 10 -49 4 -26 74 -308
97 -391 12 -43 50 -156 55 -165 3 -5 6 -13 7 -17 1 -5 3 -10 4 -13 1 -3 3 -8
4 -12 15 -71 185 -446 276 -608 35 -63 104 -179 112 -190 5 -5 40 -58 80 -117
39 -60 75 -108 79 -108 5 0 9 -6 9 -12 0 -7 14 -29 30 -48 16 -19 30 -38 30
-42 0 -5 8 -16 17 -26 41 -42 83 -92 83 -97 0 -6 23 -32 145 -163 116 -125
226 -230 345 -332 29 -25 63 -55 76 -68 13 -12 26 -22 30 -22 6 0 30 -19 100
-78 11 -9 27 -21 36 -27 9 -5 59 -40 113 -78 53 -37 101 -67 106 -67 5 0 9 -3
9 -8 0 -4 17 -16 38 -27 20 -10 44 -24 52 -31 18 -14 290 -165 305 -168 6 -2
48 -21 95 -43 124 -59 201 -93 211 -93 5 0 28 -9 52 -19 35 -16 69 -29 97 -36
3 -1 12 -5 20 -8 18 -8 111 -39 125 -42 6 -1 17 -5 25 -8 52 -20 262 -75 315
-82 11 -2 20 -4 20 -5 0 -1 9 -3 20 -5 11 -1 58 -10 104 -20 46 -9 98 -18 115
-20 17 -2 41 -6 54 -9 13 -3 43 -6 68 -7 24 -2 44 -5 44 -8 0 -25 841 -20 985
5 17 3 48 6 71 8 22 1 45 5 50 7 5 3 25 6 44 8 60 5 344 67 475 105 6 1 30 8
55 15 25 7 52 15 60 18 67 25 268 94 278 95 6 1 12 5 12 10 0 4 6 8 14 8 13 0
187 75 248 106 15 8 29 13 31 12 2 -2 16 5 31 16 16 10 66 38 112 62 98 51
127 67 134 74 3 3 14 10 25 17 63 37 160 97 169 104 12 10 151 109 206 146 19
13 37 27 40 31 3 4 30 27 60 50 171 134 495 455 612 607 12 17 27 35 33 42 21
25 31 39 64 86 19 26 38 47 43 47 4 0 8 4 8 10 0 5 26 47 58 93 31 45 62 91
69 102 6 11 36 61 67 110 110 182 201 361 295 588 22 53 38 97 35 97 -2 0 2
12 9 28 25 49 106 299 122 377 3 11 8 34 12 50 4 17 8 35 9 40 0 6 4 17 7 25
6 15 33 150 42 205 2 17 7 44 10 60 3 17 7 46 9 65 3 19 5 35 6 35 1 0 3 17 6
38 3 37 3 37 -34 38 -326 4 -636 3 -645 -3 -6 -4 -12 -17 -13 -30 0 -13 -5
-43 -9 -68 -5 -25 -9 -52 -10 -60 -10 -71 -50 -239 -81 -337 -14 -45 -27 -90
-29 -100 -2 -10 -18 -54 -35 -98 -18 -44 -33 -84 -35 -90 -16 -66 -196 -422
-253 -503 -12 -16 -22 -33 -22 -37 0 -4 -8 -17 -17 -30 -10 -12 -25 -33 -33
-45 -8 -13 -36 -52 -63 -87 -26 -35 -47 -68 -47 -72 0 -5 -7 -11 -15 -15 -8
-3 -15 -10 -15 -16 0 -6 -10 -21 -23 -33 -12 -12 -40 -44 -62 -71 -45 -57
-170 -190 -234 -250 -24 -23 -60 -57 -80 -76 -20 -19 -61 -55 -91 -80 -30 -25
-60 -49 -66 -55 -7 -5 -24 -19 -40 -30 -15 -11 -39 -29 -53 -41 -14 -11 -48
-36 -76 -54 -27 -19 -52 -36 -55 -40 -9 -10 -65 -44 -69 -41 -2 1 -7 -1 -10
-7 -17 -25 -322 -194 -473 -261 -27 -12 -69 -31 -95 -43 -27 -12 -54 -23 -60
-24 -13 -2 -143 -50 -178 -65 -18 -8 -248 -76 -285 -84 -8 -2 -35 -8 -60 -14
-25 -5 -58 -12 -75 -15 -16 -3 -41 -8 -55 -11 -14 -3 -38 -8 -55 -10 -16 -3
-39 -6 -50 -9 -56 -11 -163 -23 -280 -33 -160 -12 -535 -5 -622 11 -11 3 -44
7 -74 11 -30 3 -67 9 -84 12 -16 3 -41 8 -55 9 -14 2 -36 5 -50 8 -14 3 -41 8
-60 11 -19 3 -42 9 -50 12 -8 3 -31 9 -50 13 -100 22 -313 86 -365 109 -11 5
-47 19 -80 31 -33 12 -84 33 -113 46 -29 13 -55 24 -57 24 -13 0 -239 116
-365 188 -51 30 -292 191 -330 222 -14 11 -54 44 -90 73 -36 29 -76 61 -90 72
-30 24 -339 333 -360 361 -8 10 -31 39 -50 64 -19 25 -40 49 -46 55 -20 17
-204 280 -204 290 0 3 -12 24 -27 48 -51 79 -161 291 -205 397 -25 59 -79 197
-83 210 0 3 -11 34 -22 70 -23 68 -68 228 -77 270 -3 14 -12 59 -21 100 -9 41
-19 93 -21 115 -3 22 -10 56 -14 75 l-9 35 -203 0 c-112 0 -273 -2 -358 -5z"/>
<path d="M3624 2415 c-17 -7 -35 -21 -39 -31 -12 -26 -14 -603 -3 -636 17 -49
41 -56 205 -57 95 -1 159 2 175 10 50 22 52 39 53 353 1 332 -2 350 -64 365
-56 14 -292 11 -327 -4z"/>
<path d="M4289 2399 c-23 -22 -29 -36 -30 -71 -1 -99 0 -563 2 -565 1 -2 2 -6
4 -10 15 -55 48 -64 230 -63 l150 2 27 31 c26 30 27 33 27 172 0 78 1 146 2
151 1 5 1 12 0 17 -4 16 -3 118 1 122 2 3 2 26 -2 53 -3 26 -3 58 0 72 8 35
-23 95 -57 108 -17 7 -87 11 -176 10 -147 -1 -149 -2 -178 -29z"/>
<path d="M4983 2417 c-44 -19 -47 -42 -48 -340 0 -155 3 -297 8 -316 16 -63
34 -69 203 -70 165 -2 197 5 218 48 10 19 13 103 12 326 -1 327 -2 333 -59
354 -33 13 -305 11 -334 -2z"/>
</g>
</svg>
