<?xml version="1.0" encoding="utf-8"?>
<!-- Generator: Adobe Illustrator 25.1.0, SVG Export Plug-In . SVG Version: 6.00 Build 0)  -->
<svg version="1.1" id="Layer_1" xmlns="http://www.w3.org/2000/svg" xmlns:xlink="http://www.w3.org/1999/xlink" x="0px" y="0px"
	 viewBox="0 0 896 896" style="enable-background:new 0 0 896 896;" xml:space="preserve">
<style type="text/css">
	.st0{fill:#201617;}
	.st1{fill:none;stroke:#68F3CA;stroke-width:7.1755;stroke-miterlimit:10;}
	.st2{fill:none;stroke:#68F3CA;stroke-width:6.3788;stroke-miterlimit:10.0002;}
	.st3{fill:#68F3CA;}
	.st4{fill:#FF00AA;}
	.st5{fill:#FFFDEB;}
	.st6{fill:#231618;}
	.st7{fill:#B3B1A5;}
	.st8{fill:#48A88C;}
	.st9{fill:#5AD1AE;}
</style>
<circle class="st0" cx="448" cy="448" r="438.5"/>
<g>
	<circle class="st1" cx="448.1" cy="448.4" r="384"/>
	<ellipse class="st2" cx="448" cy="448" rx="397.8" ry="397.8"/>
	<g>
		<g>
			<path class="st3" d="M423.3,69.5c5.2,12.1,16.1,35.7,16.1,35.7l13.3,0c0,0,10.4-23.6,16.1-35.2c0.6-2.3-0.6-4.6-1.7-4.6h-41.5
				C423.8,65.5,422.7,67.8,423.3,69.5z"/>
		</g>
		<g>
			<path class="st3" d="M307.4,95.5c8.6,9.8,25.9,28.8,25.9,28.8l12.7-4c0,0,2.9-25.4,4-38.6c0-2.3-1.7-4-3.5-3.5l-39.2,12.7
				C306.2,91.4,306.2,93.8,307.4,95.5z"/>
		</g>
		<g>
			<path class="st3" d="M204.7,156.6c11.5,6.3,34,19.6,34,19.6l11-8.1c0,0-5.2-25.4-8.1-38.1c-0.6-2.3-2.9-3.5-4-2.3L204.2,152
				C202.4,152.6,203,154.9,204.7,156.6z"/>
		</g>
		<g>
			<path class="st3" d="M126.3,245.4c12.7,2.9,38.1,8.1,38.1,8.1l8.1-11c0,0-12.7-22.5-19-33.4c-1.2-1.7-4-2.3-4.6-1.2l-24.2,33.4
				C122.9,242.5,124.6,244.8,126.3,245.4z"/>
		</g>
		<g>
			<path class="st3" d="M79,355c12.7-1.2,38.6-4,38.6-4l4-12.7c0,0-19-17.3-28.8-25.9c-1.7-1.2-4-1.2-4.6,0.6L75,352.1
				C75,353.2,77.3,355,79,355z"/>
		</g>
		<g>
			<path class="st3" d="M68.1,473.2c12.1-5.2,35.7-16.1,35.7-16.1v-13.3c0,0-23.6-10.4-35.2-16.1c-2.3-0.6-4.6,0.6-4.6,1.7v41.5
				C64,472.6,66.4,473.7,68.1,473.2z"/>
		</g>
		<g>
			<path class="st3" d="M94,589c9.8-8.6,28.8-25.9,28.8-25.9l-4-12.7c0,0-25.4-2.9-38.6-4c-2.3,0-4,1.7-3.5,3.5L89.4,589
				C90,590.2,92.3,590.2,94,589z"/>
		</g>
		<g>
			<path class="st3" d="M154.6,691.1c6.3-11.5,19.6-34,19.6-34l-8.1-11c0,0-25.4,5.2-38.1,8.1c-2.3,0.6-3.5,2.9-2.3,4l24.2,33.4
				C151.1,693.4,153.4,692.8,154.6,691.1z"/>
		</g>
		<g>
			<path class="st3" d="M243.9,770.1c2.9-12.7,8.1-38.1,8.1-38.1l-11-8.1c0,0-22.5,12.7-33.4,19c-1.7,1.2-2.3,4-1.2,4.6l33.4,24.2
				C241.1,773,243.4,771.8,243.9,770.1z"/>
		</g>
		<g>
			<path class="st3" d="M352.9,816.8c-1.2-12.7-4-38.6-4-38.6l-12.7-4c0,0-17.3,19-25.9,28.8c-1.2,1.7-1.2,4,0.6,4.6l39.2,13.3
				C351.2,820.8,352.9,819.1,352.9,816.8z"/>
		</g>
		<g>
			<path class="st3" d="M471.7,828.3c-5.2-12.1-16.1-35.7-16.1-35.7h-13.3c0,0-10.4,23.6-16.1,35.2c-0.6,2.3,0.6,4.6,1.7,4.6h41.5
				C471.1,832.4,472.3,830.1,471.7,828.3z"/>
		</g>
		<g>
			<path class="st3" d="M587.6,801.8c-8.6-9.8-25.9-28.8-25.9-28.8l-12.7,4c0,0-2.9,25.4-4,38.6c0,2.3,1.7,4,3.5,3.5l39.2-12.7
				C588.7,806.4,588.7,803.5,587.6,801.8z"/>
		</g>
		<g>
			<path class="st3" d="M689.7,741.3c-11.5-6.3-34-19.6-34-19.6l-11,8.1c0,0,5.2,25.4,8.1,38.1c0.6,2.3,2.9,3.5,4,2.3l33.4-24.2
				C692,745.3,691.4,743,689.7,741.3z"/>
		</g>
		<g>
			<path class="st3" d="M768.1,652.5c-12.7-2.9-38.1-8.1-38.1-8.1l-8.1,11c0,0,12.7,22.5,19,33.4c1.2,1.7,4,2.3,4.6,1.2l24.2-33.4
				C771.5,655.4,770.4,653.1,768.1,652.5z"/>
		</g>
		<g>
			<path class="st3" d="M815.3,542.9c-12.7,1.2-38.6,4-38.6,4l-4,12.7c0,0,19,17.3,28.8,25.9c1.7,1.2,4,1.2,4.6-0.6l13.3-39.2
				C819.4,544.7,817.7,542.9,815.3,542.9z"/>
		</g>
		<g>
			<path class="st3" d="M826.3,424.7c-12.1,5.2-35.7,16.1-35.7,16.1v13.3c0,0,23.6,10.4,35.2,16.1c2.3,0.6,4.6-0.6,4.6-1.7V427
				C830.9,425.3,828.6,424.1,826.3,424.7z"/>
		</g>
		<g>
			<path class="st3" d="M800.4,308.8c-9.8,8.6-28.8,25.9-28.8,25.9l4,12.7c0,0,25.4,2.9,38.6,4c2.3,0,4-1.7,3.5-3.5L805,308.8
				C805,307.7,802.1,307.7,800.4,308.8z"/>
		</g>
		<g>
			<path class="st3" d="M739.8,206.2c-6.3,11.5-19.6,34-19.6,34l8.1,11c0,0,25.4-5.2,38.1-8.1c2.3-0.6,3.5-2.9,2.3-4l-24.2-33.4
				C743.9,204.5,741,204.5,739.8,206.2z"/>
		</g>
		<g>
			<path class="st3" d="M650.4,127.8c-2.9,12.7-8.1,38.1-8.1,38.1l11,8.1c0,0,22.5-12.7,33.4-19c1.7-1.2,2.3-4,1.2-4.6L654.5,126
				C653.3,124.9,651.6,126,650.4,127.8z"/>
		</g>
		<g>
			<path class="st3" d="M541.5,81.1c1.2,12.7,4,38.6,4,38.6l12.7,4c0,0,17.3-19,25.9-28.8c1.2-1.7,1.2-4-0.6-4.6L544.3,77
				C543.2,77,541.5,78.8,541.5,81.1z"/>
		</g>
		<g>
			<path class="st3" d="M423.3,69.5c5.2,12.1,16.1,35.7,16.1,35.7l13.3,0c0,0,10.4-23.6,16.1-35.2c0.6-2.3-0.6-4.6-1.7-4.6h-41.5
				C423.8,65.5,422.7,67.8,423.3,69.5z"/>
		</g>
	</g>
	<path class="st4" d="M611.8,424.1"/>
	<path class="st5" d="M399.6,365.3"/>
	<path class="st5" d="M506.9,406.8"/>
	<path class="st4" d="M495.3,309.4"/>
	<path class="st4" d="M505.7,380.9"/>
	<path class="st5" d="M544.3,429.9c6.9,2.9,12.7,6.3,24.8,10.4c9.8,3.5,18.5,5.2,24.2,5.8c-2.9-13.3-4.6-24.2-6.3-31.7
		c-2.9-17.3-3.5-22.5-4-25.9c-0.6-11-0.6-20.2,0-28.8c0.6-20.8-1.7-38.1-4-50.7l0,0c-0.6-6.3-4-27.1-30-55.4
		c-12.1-13.3-32.9-35.7-68-49c-24.8-9.2-45-9.2-61.7-9.2c-13.3,0-33.4-0.6-57.7,6.9c-12.1,3.5-78.4,23.1-87.6,70.9
		c-2.9,14.4,0.6,27.1,3.5,35.7c-3.5,1.7-7.5,4-11,5.8c-1.7,4.6-3.5,9.8-4.6,16.1c-1.2,5.8-1.2,11.5-1.2,15.6
		c1.2,13.3,2.3,24.2,2.9,33.4c0,2.3,0.6,6.3,1.7,11.5c1.2,5.2,3.5,9.8,5.2,13.3c-1.7,4.6-4.6,8.1-6.3,9.8c-2.9,3.5-5.8,5.8-8.1,6.9
		c-4.6,2.3-7.5,2.3-8.6,5.2c-2.3,5.8,7.5,12.1,16.1,24.2c6.3,8.6,9.2,16.7,11,22.5c2.3,0.6,4.6,1.7,6.3,2.3
		c2.9-2.9,9.8-9.2,20.2-10.4c4-0.6,6.9-0.6,9.8,0c2.3-2.9,6.3-2.9,7.5-1.2c1.7,1.7,1.2,5.2-1.7,7.5c0,3.5,0.6,7.5,0.6,11
		c7.5,2.9,16.7,5.2,27.7,6.3c30,2.9,53.6-7.5,65.2-13.8c-0.6-3.5-0.6-7.5-1.2-11c-1.7-2.9-2.9-5.8-4.6-8.6c-2.3-2.9-1.7-6.9,0-8.6
		c2.3-2.3,7.5-1.7,10.4,2.3c4-4,9.2-8.1,16.1-12.1c20.8-11,41.5-8.1,49.6-6.9c2.9-2.9,4.6-4.6,7.5-7.5c-1.7-8.6-3.5-26.5,5.2-45.6
		c2.9-6.9,6.3-12.1,9.8-16.1c0-0.6,0.6-2.9-0.6-5.2c-1.2-2.3-4-3.5-6.3-3.5c-3.5,0.6-8.1,1.2-13.3,0.6c-2.9,0-4.6-0.6-6.9-1.2
		c-1.7-0.6-3.5-1.7-4.6-2.3c-1.2-3.5-2.9-8.1-6.3-13.3c-3.5-5.2-7.5-9.2-10.4-11.5c-1.7-5.8-4-12.1-5.2-20.2
		c-1.7-13.3-1.2-24.2,0-32.3c2.9-0.6,6.3-1.7,10.4-1.7c6.3,0,11,1.2,14.4,1.7c-3.5-0.6-8.1-0.6-13.8,1.2c-2.3,0.6-4,1.7-5.8,2.3
		c0,5.2,0.6,11.5,1.7,18.5c1.7,9.8,4.6,18.5,7.5,24.8c2.3,3.5,4.6,6.9,7.5,11s5.8,7.5,8.6,11c17.3-1.2,40.4-1.7,51.3,4
		c0.6,0,0.6,0.6,0.6,0.6c2.9,1.7,10.4,5.8,19.6,16.7c18.5,21.9,24.2,46.7,26.5,64.6c-21.9-8.6-34-17.3-40.9-23.6
		c-2.3-1.7-6.9-6.9-15-11c-7.5-4.6-15-6.3-19.6-7.5c-2.3,3.5-6.9,11.5-6.9,22.5c0,7.5,1.7,13.3,3.5,16.7
		C520.7,422.4,535.1,426.4,544.3,429.9z"/>
	<g>
		<path class="st6" d="M275.7,307.7c6.9-3.5,15-5.2,22.5-5.8c-7.5,1.2-15,4-21.3,7.5c-0.6,0.6-1.2,0-1.7-0.6
			C274.5,308.8,274.5,308.2,275.7,307.7C275.1,307.7,275.1,307.7,275.7,307.7z"/>
	</g>
	<g>
		<g>
			<path class="st6" d="M472.9,338.8c5.8-1.7,11.5-2.3,17.9-3.5c5.8-0.6,11.5-1.2,17.9-1.7c5.8,0,12.1,0,17.9,1.2
				c5.8,1.2,11.5,2.9,16.7,5.8c-5.2-2.9-11-4-16.7-4.6c-5.8-0.6-11.5,0-17.3,0.6c-11.5,1.2-23.1,4-33.4,8.1l0,0
				c-1.7,0.6-3.5-0.6-4-2.3C470,341.1,471.1,339.4,472.9,338.8L472.9,338.8z"/>
		</g>
		<g>
			<path class="st6" d="M469.4,329c5.8-1.7,11.5-2.3,17.9-3.5c5.8-0.6,11.5-1.2,17.9-1.7c5.8,0,12.1,0,17.9,1.2
				c5.8,1.2,11.5,2.9,16.7,5.8c-5.2-2.9-11-4-16.7-4.6c-5.8-0.6-11.5,0-17.3,0.6c-11.5,1.2-23.1,4-33.4,8.1l0,0
				c-1.7,0.6-3.5-0.6-4-2.3C466.5,331.3,467.7,329.6,469.4,329L469.4,329z"/>
		</g>
		<g>
			<path class="st6" d="M466.5,319.2c5.8-1.7,11.5-2.3,17.9-3.5c5.8-0.6,11.5-1.2,17.9-1.7c5.8,0,12.1,0,17.9,1.2
				c5.8,1.2,11.5,2.9,16.7,5.8c-5.2-2.9-11-4-16.7-4.6c-5.8-0.6-11.5,0-17.3,0.6c-11.5,1.2-23.1,4-33.4,8.1l0,0
				c-1.7,0.6-3.5-0.6-4-2.3C463.6,322.1,464.2,319.8,466.5,319.2C465.9,319.2,466.5,319.2,466.5,319.2z"/>
		</g>
		<g>
			<path class="st6" d="M463.1,309.4c5.8-1.7,11.5-2.3,17.9-3.5c5.8-0.6,11.5-1.2,17.9-1.7c5.8,0,12.1,0,17.9,1.2
				c5.8,1.2,11.5,2.9,16.7,5.8c-5.2-2.9-11-4-16.7-4.6c-5.8-0.6-11.5,0-17.3,0.6c-11.5,1.2-23.1,4-33.4,8.1l0,0
				c-1.7,0.6-3.5-0.6-4-2.3C460.2,312.3,461.3,310.6,463.1,309.4L463.1,309.4z"/>
		</g>
		<g>
			<path class="st6" d="M459.6,300.2c5.8-1.7,11.5-2.3,17.9-3.5c5.8-0.6,11.5-1.2,17.9-1.7c5.8,0,12.1,0,17.9,1.2
				c5.8,1.2,11.5,2.9,16.7,5.8c-5.2-2.9-11-4-16.7-4.6c-5.8-0.6-11.5,0-17.3,0.6c-11.5,1.2-23.1,4-33.4,8.1l0,0
				c-1.7,0.6-3.5-0.6-4-2.3C456.7,302.5,457.9,300.8,459.6,300.2L459.6,300.2z"/>
		</g>
		<g>
			<path class="st6" d="M456.7,290.4c5.8-1.7,11.5-2.3,17.9-3.5c5.8-0.6,11.5-1.2,17.9-1.7c5.8,0,12.1,0,17.9,1.2
				c5.8,1.2,11.5,2.9,16.7,5.8c-5.2-2.9-11-4-16.7-4.6c-5.8-0.6-11.5,0-17.3,0.6c-11.5,1.2-23.1,4-33.4,8.1l0,0
				c-1.7,0.6-3.5-0.6-4-2.3C453.8,292.7,454.4,290.9,456.7,290.4C456.1,290.4,456.7,290.4,456.7,290.4z"/>
		</g>
		<g>
			<path class="st6" d="M453.2,280.6c5.8-1.7,11.5-2.3,17.9-3.5c5.8-0.6,11.5-1.2,17.9-1.7c5.8,0,12.1,0,17.9,1.2s11.5,2.9,16.7,5.8
				c-5.2-2.9-11-4-16.7-4.6c-5.8-0.6-11.5,0-17.3,0.6c-11.5,1.2-23.1,4-33.4,8.1l0,0c-1.7,0.6-3.5-0.6-4-2.3
				C450.4,282.9,451.5,281.1,453.2,280.6L453.2,280.6z"/>
		</g>
	</g>
	<g>
		<path class="st6" d="M371.9,384.9c8.6,8.6,16.1,19,21.3,29.4c-6.3-10.4-14.4-19.6-23.6-27.1c-0.6-0.6-0.6-1.7,0-2.3
			C370.2,384.4,371.4,384.4,371.9,384.9L371.9,384.9z"/>
	</g>
	<g>
		<path class="st6" d="M350,387.8l-9.8,13.8l-8.6,15l7.5-15.6l9.2-14.4c0.6-0.6,1.2-0.6,1.7-0.6C350,386.7,350.6,387.2,350,387.8
			L350,387.8L350,387.8z"/>
	</g>
	<g>
		<path class="st7" d="M417.5,269.6c6.9-1.2,13.8,0.6,19,4.6c-5.8-3.5-12.7-4-19-2.3c-0.6,0-1.2,0-1.2-0.6
			C416.3,270.8,416.9,269.6,417.5,269.6L417.5,269.6z"/>
	</g>
	<g>
		<path class="st7" d="M419.8,274.2c6.9-0.6,13.8,2.3,18.5,6.3c-5.2-4-12.1-5.2-18.5-4.6c-0.6,0-1.2-0.6-1.2-1.2
			C418.7,274.8,419.2,274.2,419.8,274.2L419.8,274.2z"/>
	</g>
	<g>
		<path class="st7" d="M421,279.4c6.9,0,13.8,2.9,18.5,7.5c-5.2-4-12.1-5.8-18.5-5.2c-0.6,0-1.2-0.6-1.2-1.2
			C419.8,280,420.4,279.4,421,279.4L421,279.4z"/>
	</g>
	<g>
		<path class="st7" d="M421,284.6c6.9,0.6,13.3,3.5,17.9,8.6c-5.2-4.6-11.5-6.3-17.9-6.3c-0.6,0-1.2-0.6-1.2-1.2
			S420.4,284.6,421,284.6L421,284.6z"/>
	</g>
	<g>
		<path class="st7" d="M330.4,300.8l-13.3-2.3h0.6c-2.3,0.6-5.2,1.2-7.5,1.2c-2.3,0-5.2,0.6-7.5,1.2c2.3-0.6,4.6-1.7,7.5-1.7
			c2.3-0.6,4.6-1.2,7.5-1.7l0,0l0,0L331,299c0.6,0,1.2,0.6,1.2,1.2C331.6,300.2,331,300.8,330.4,300.8L330.4,300.8z"/>
	</g>
	<g>
		<path class="st7" d="M448.1,364.2c-9.8,11-23.1,18.5-37.5,21.9l1.2-3.5c3.5,4.6,6.9,9.2,10.4,13.8l0.6,0.6v0.6
			c-1.2,4.6-1.7,9.8-3.5,14.4c0-5.2,0-9.8,0.6-14.4l0.6,1.2c-4-4-7.5-8.6-11.5-13.3l-2.3-2.3l2.9-1.2
			C423.3,378,436,371.7,448.1,364.2z"/>
	</g>
	<g>
		<path class="st7" d="M282.6,405.1c4.6,1.7,9.2,2.3,14.4,2.9c4.6,0.6,9.8,0.6,14.4-1.2l0.6-0.6v1.2c-1.2,4-2.3,8.1-4,12.7v-0.6
			c1.2,1.7,2.9,2.9,4.6,4.6l0,0l0,0c0.6,2.3,0.6,5.2,1.2,8.1c-0.6-2.3-1.2-5.2-1.7-7.5l0,0c-1.7-1.7-2.9-2.9-4.6-4.6l0,0l0,0
			c1.2-4,2.3-8.1,4-12.7l0.6,0.6c-4.6,1.7-9.8,1.2-15,0.6C291.8,408,286.6,406.8,282.6,405.1z"/>
	</g>
	<g>
		<path class="st7" d="M490.2,364.2c-5.2,8.1-8.6,17.3-10.4,26.5s-1.7,19,0,28.3v1.7l-1.2-0.6c-11.5-2.3-23.1-1.7-34.6,1.2
			c11-4.6,23.1-5.8,35.2-2.9l-1.2,1.2c-2.3-9.8-1.7-19.6,0-29.4C479.8,380.9,483.8,371.7,490.2,364.2z"/>
	</g>
	<g>
		<path class="st7" d="M257.2,433.4c5.2,4,9.8,9.2,13.8,15c4,5.8,6.9,12.1,9.2,18.5h-0.6c9.2-5.8,20.8-8.6,31.1-6.9
			c-11-1.2-21.9,1.7-30.6,7.5l-0.6,0.6v-0.6c-2.3-6.3-5.2-12.7-8.6-18.5C266.4,443.2,262.4,438,257.2,433.4z"/>
	</g>
	<g>
		<path class="st7" d="M345.4,300.2c0,1.7,0,2.9,0,4.6s0,2.9,0,4c0,2.9,0.6,5.8,1.2,8.6l-2.9-1.7c5.2-1.7,10.4-3.5,15.6-5.2
			c5.2-1.7,10.4-4.6,15-7.5c9.8-5.8,18.5-13.3,25.9-21.3c-7.5,8.6-15.6,16.1-24.8,23.1c-4.6,3.5-9.8,6.3-14.4,8.6
			c-5.2,2.9-10.4,5.2-15.6,6.3l-2.3,0.6l-0.6-2.3c-0.6-2.9-0.6-6.3,0-9.2c0-1.7,0.6-2.9,1.2-4.6
			C344.3,303.1,344.8,301.3,345.4,300.2z"/>
	</g>
	<path class="st6" d="M324.1,485.8c0-1.2,1.2-9.8,4-10.4c2.3,0,5.2,5.2,6.9,12.7l8.6,1.2c0-0.6,1.2-13.3,4-13.3
		c1.7,0,4,5.8,5.8,14.4c2.3,0,5.2,0,7.5,0c0.6-9.2,2.3-16.1,4.6-16.7c2.3,0,4.6,6.3,6.3,15.6l8.6-1.7c0-1.7,1.2-15.6,3.5-15.6
		c2.3,0,5.2,11.5,5.8,13.3l6.3-2.3c0-2.3,0-16.1,3.5-16.7c2.3-0.6,5.8,9.8,6.9,12.7c-9.2,4.6-24.8,10.4-45.6,11
		C345.4,491.6,332.7,488.7,324.1,485.8z"/>
	<path class="st5" d="M328.7,480.6c1.7,0,4,8.6,4.6,12.1c-2.3-0.6-5.2-1.2-7.5-1.7C326.4,487.6,327,480.6,328.7,480.6z"/>
	<path class="st5" d="M348.3,483c2.3,0,4,11.5,4.6,13.3l-8.1-0.6C344.8,493.9,346,483.5,348.3,483z"/>
	<path class="st5" d="M362.7,496.2c0-4,0.6-16.1,2.9-16.1c1.7,0,4,12.1,5.2,15.6C367.9,496.2,365.6,496.2,362.7,496.2z"/>
	<path class="st5" d="M382.3,493.9c0-6.3,0-15,1.7-15s3.5,7.5,5.2,13.3L382.3,493.9z"/>
	<path class="st5" d="M400.2,473.2c-1.7,0-1.7,9.8-1.7,15.6l7.5-2.3C404.2,480.6,401.9,473.2,400.2,473.2z"/>
	<path class="st6" d="M328.1,316.9c-9.2-9.2-40.4-2.9-50.2,16.7c-5.8,11-2.3,23.1-0.6,30c1.7,6.9,4.6,18.5,15,23.6
		c6.9,3.5,13.8,2.9,19,1.7c2.9-0.6,24.2-3.5,28.8-16.7c3.5-9.2-4.6-13.3-8.6-35.7C329.9,323.2,331.6,320.4,328.1,316.9z"/>
	<path class="st6" d="M344.3,333.6c3.5,5.2,11,15,24.2,22.5c5.8,2.9,20.8,11,39.2,6.9c4-1.2,23.1-5.2,31.1-22.5
		c4-9.2,2.9-17.3,2.3-20.8c-4-23.6-30.6-33.4-31.7-34c-4,8.1-13.8,23.1-31.7,34.6C364.5,328.4,352.3,331.9,344.3,333.6z"/>
	<path class="st3" d="M365.6,333c4.6,9.2,13.3,15,22.5,13.8c0.6,0,12.1-1.2,16.7-10.4c4-8.1,1.7-19.6-6.9-26.5c-4,4-8.6,8.1-15,12.7
		C377.1,327.3,370.8,330.7,365.6,333z"/>
	<path class="st4" d="M299.9,343.4c-3.5-1.2-6.9-1.2-8.6-1.2c-0.6,0.6-1.7,1.7-2.9,3.5c-1.2,2.3,0,4.6,0,5.2c1.7,0,4.6,0.6,6.9,1.7
		c1.7,0.6,3.5,1.7,4.6,2.3c-0.6,2.3-1.2,4.6-2.3,6.9c-0.6,1.7-1.7,3.5-2.3,4.6c0,0,0.6,3.5,3.5,5.2c2.3,1.2,4.6,0.6,4.6,0.6
		c1.2-1.7,1.7-3.5,2.9-5.2c1.2-2.3,1.7-4.6,2.3-6.9c1.2,0.6,2.9,1.7,4.6,2.3c2.3,1.2,4.6,2.9,6.3,4c0.6,0,2.3-0.6,4-2.3
		c2.3-2.9,1.7-6.3,1.2-6.3c-1.7-1.7-4-2.9-6.3-4.6c-1.7-1.2-4-2.3-5.2-3.5c0.6-2.9,1.7-6.9,1.7-11c0.6-3.5,0.6-6.3,0-8.6
		c-0.6-0.6-1.7-1.7-4-1.7c-2.9-0.6-5.2,1.2-5.8,1.7c0,2.3,0,5.2,0,8.1c-0.6,2.9-1.2,5.2-1.7,6.9C303.3,344.6,301.6,344,299.9,343.4z
		"/>
	<g>
		<path class="st6" d="M356.4,401.1c-0.6-3.5-1.2-7.5-1.7-11.5c-4.6,9.8-9.2,17.9-12.1,23.1c-5.8,9.8-9.2,14.4-9.8,22.5
			c-0.6,4-1.2,11.5,3.5,15c4,3.5,11.5,2.3,18.5-2.3c1.2-5.8,1.7-9.8,1.7-13.3c0-4-0.6-4.6,0-9.2c0-5.8,0.6-5.8,1.2-11.5
			C357,408,356.4,404,356.4,401.1z"/>
		<path class="st6" d="M359.8,427c0,2.9,0.6,7.5,1.7,12.1c1.2,3.5,1.7,5.2,2.9,6.3c5.2,4.6,18.5,1.2,21.9-6.3
			c1.7-3.5,1.2-6.3,0.6-8.6c-3.5-16.7-21.9-35.2-27.7-40.9c0,0.6,0.6,1.2,0.6,2.3c0,0.6,0.6,4,1.2,6.3c0.6,8.6,0,17.3,0,17.3
			C360.4,423,359.8,422.4,359.8,427z"/>
	</g>
	<path class="st4" d="M540.3,508.3c-1.2,0-2.3,0-4,1.2c-2.3,1.2-3.5,2.9-4,3.5c-2.3,0-5.2,0.6-8.6,1.7c-7.5,1.7-13.3,4.6-15,5.2
		c-3.5,1.7-8.1,4-12.7,7.5c-5.2,0.6-12.1,2.3-19.6,5.8c-5.2,2.3-9.2,5.2-12.7,7.5c-3.5,0-9.8,1.2-16.1,4.6
		c-5.8,2.9-9.8,6.3-12.1,9.2c-2.9-0.6-9.2-1.7-17.3,1.2c-6.9,2.3-11.5,6.3-13.3,8.6c-4.6-0.6-10.4,0-17.3,0.6
		c-9.2,1.7-16.7,4.6-21.3,6.9c-1.2,0-9.8,1.2-15,8.6c-3.5,5.2-3.5,10.4-3.5,12.1c-0.6,1.7-3.5,7.5-1.7,14.4c1.2,5.8,4.6,9.2,5.8,11
		c1.7,2.3,5.8,6.9,12.7,9.2c9.2,3.5,16.7,0.6,19,0c4-0.6,8.6-1.7,14.4-3.5c5.2-1.7,9.2-4,12.7-5.8c4.6-1.2,9.8-2.9,14.4-5.2
		c3.5-1.2,6.9-2.9,9.8-4c4.6-0.6,11-2.3,17.3-4.6c5.2-1.7,9.8-4,13.3-6.3c4-0.6,8.6-1.7,13.8-3.5c4.6-1.7,8.6-2.9,12.7-4.6
		c3.5-0.6,7.5-1.2,12.1-2.9c5.2-1.7,8.6-4,11.5-6.3c3.5,0,9.8-0.6,16.1-3.5c4.6-2.3,8.1-5.2,10.4-6.9c1.7,1.2,4,2.9,8.1,4
		c6.3,1.7,11,0,13.3-0.6c-1.7,0.6-2.9,2.3-2.9,4c0,2.3,2.3,3.5,2.3,3.5c-0.6-0.6-2.3-1.7-4.6-1.7c-1.7,0-2.9,1.2-3.5,1.2
		c-2.9,0-9.2,0-15.6,3.5c-6.9,3.5-11,8.1-12.7,10.4c-4,1.2-8.1,2.3-12.7,4c-4,1.7-7.5,2.9-10.4,4.6c-2.9,0.6-6.3,1.2-9.8,2.3
		c-6.9,1.7-12.7,4-17.3,6.3c-2.9,0.6-7.5,1.2-12.7,4c-3.5,1.7-5.8,4-7.5,5.8c-4-0.6-11-0.6-19,2.9c-2.9,1.2-5.2,2.3-6.9,4
		c-4.6,1.2-10.4,2.3-16.1,5.2c-3.5,1.7-6.3,3.5-9.2,5.2c-1.7,0-10.4,0.6-16.1,8.1c-1.2,1.7-5.2,6.3-4.6,13.3
		c0.6,5.2,3.5,8.1,4.6,9.8c0,1.2,0,4,1.7,7.5c1.7,3.5,4.6,5.2,5.8,5.8c0.6,1.2,4,6.3,11,7.5c7.5,1.7,12.7-1.7,13.8-2.3
		c4-0.6,8.1-1.2,12.1-1.7c4.6-0.6,11-1.7,18.5-4.6c5.2-2.3,9.2-4.6,12.7-6.9c5.8,0,13.8-0.6,21.9-2.9c4.6-1.2,9.2-2.9,12.7-4.6
		c3.5-0.6,8.6-1.7,13.8-3.5c5.2-1.7,8.6-4,12.1-6.3c2.3,0,6.3-0.6,10.4-1.7c5.2-1.7,8.6-4,11-5.8c-1.2,1.7-1.2,4,0,5.2
		c1.2,1.7,2.9,1.7,2.9,1.7c-2.3-0.6-4.6,0.6-5.8,2.3c-1.2,1.7-1.7,4-0.6,6.3c-2.3,1.2-5.2,2.3-8.6,4c-4.6,2.3-8.1,5.2-10.4,7.5
		c-4.6-0.6-13.3-0.6-21.9,4.6c-2.3,1.2-4,2.3-5.2,3.5c-2.9-0.6-6.9-1.2-11.5-0.6c-2.3,0-6.9,0.6-12.1,2.9c-4.6,1.7-8.6,4.6-11,6.9
		c-1.7,0.6-6.9,2.3-11,6.9c-3.5,4-4.6,8.6-4.6,10.4c-0.6,1.7-1.2,5.8,0.6,10.4c1.2,4.6,4,7.5,5.2,8.6c1.2,6.9,3.5,10.4,5.8,12.7
		c2.9,2.3,8.1,4.6,10.4,7.5c0,0.6,1.2,1.7,2.9,4c0,0,0.6,0.6,1.2,1.2c2.9,2.9,6.3,4.6,9.2,5.8c0.6-4,0.6-6.9,0-9.2
		c0-3.5-0.6-5.8-1.7-8.6c-1.7-3.5-2.9-3.5-4.6-6.3c-1.7-2.9-1.7-5.2-1.7-8.1c-0.6-3.5-2.3-8.1-6.9-13.8c1.7,0,6.9-1.2,10.4-5.2
		c1.2-1.2,1.7-2.3,2.3-3.5c2.9,0,6.3-0.6,10.4-1.7c5.2-1.7,9.2-4,11.5-5.8c3.5,0,7.5-0.6,12.7-2.3c6.3-2.3,11.5-5.2,13.8-7.5
		c2.9,0,7.5,0,12.1-1.2c7.5-2.3,12.7-6.3,15-9.2c1.7-1.2,4.6-3.5,6.3-7.5c1.7-2.9,2.9-5.8,3.5-7.5c0.6-0.6,7.5-6.9,5.2-15
		c-0.6-3.5-2.9-5.8-4-6.9c0-1.7,0-5.2-1.7-9.2c-2.3-4-5.8-6.9-8.6-8.1c-6.9-2.3-15.6,0.6-21.3,8.1c-2.3,0-5.8,0-9.2,1.2
		c-3.5,1.2-6.3,2.3-8.1,3.5c-2.9,0.6-6.3,1.2-9.8,2.3c-4.6,1.7-8.6,3.5-11.5,5.2c-4,0.6-9.2,1.2-15,3.5c-6.9,2.3-12.1,5.8-15.6,8.1
		c-2.3,0-4-0.6-6.3-0.6c-15,0-26.5,6.3-34,11c0-0.6,0-3.5-1.7-5.8c-2.3-2.3-5.2-2.3-5.8-2.3c2.9-0.6,8.6-1.7,13.8-5.8
		c2.9-2.3,5.2-5.2,6.3-6.9c3.5-0.6,7.5-1.2,12.7-2.9c5.8-1.7,10.4-4.6,13.3-6.3c2.3,0,5.2-0.6,8.6-1.2c3.5-1.2,6.3-2.3,8.6-3.5
		c4,0,9.2-0.6,15.6-1.7c6.3-1.7,11-4,14.4-6.3c2.9-0.6,6.3-1.2,11-3.5c4.6-2.3,8.1-5.2,9.8-6.9c2.9,0,8.1,0,13.8-2.9
		c5.8-2.9,9.2-6.3,11-8.6c1.7,0.6,8.6,2.3,16.1-1.2c5.8-2.9,8.6-7.5,9.2-9.2c1.2-1.2,3.5-2.9,5.2-6.9c2.3-5.8,0-11-0.6-12.1
		c0-1.7,0.6-6.3-2.3-11.5c-2.3-4.6-5.8-6.9-7.5-7.5c-2.3-1.7-5.2-4-8.6-5.8c-11-5.2-21.3-2.9-25.4-1.7c-3.5,0.6-7.5,1.7-12.1,3.5
		c-7.5,2.3-13.3,5.2-18.5,8.1c-2.9,0.6-5.8,1.7-8.6,2.9c-5.2,1.7-9.8,4-13.3,6.3c-3.5,0.6-6.9,1.2-10.4,1.7
		c-8.6,2.3-16.1,5.8-21.9,8.6c-4.6,0.6-9.8,2.3-16.1,4.6c-3.5,1.2-6.9,2.9-9.8,4.6c-5.8,0.6-12.7,2.3-20.8,5.2
		c-3.5,1.2-6.9,2.9-9.8,4.6c-2.9,0-5.8,0.6-9.8,1.7c-2.9,0.6-5.8,1.7-7.5,2.9c-1.2-0.6-2.9-1.7-5.2-2.3c-3.5-0.6-5.8,0-6.9,0.6
		c0.6-0.6,1.7-1.7,2.3-4c0.6-1.7,0.6-3.5,0-4c4,0,8.6-1.2,13.8-2.3c5.2-1.7,9.8-3.5,13.3-5.2c4-0.6,9.2-1.7,14.4-3.5
		c5.2-1.7,9.8-4,13.3-5.8c5.2,0,12.1-1.2,20.2-4c5.8-2.3,11-4.6,14.4-6.9c6.3-1.2,13.3-3.5,21.9-6.9c6.3-2.9,12.1-6.3,16.1-9.2
		c6.3-0.6,13.3-2.3,20.8-4c7.5-2.3,14.4-4.6,20.2-6.9c3.5-2.3,6.9-4.6,10.4-6.9c1.2,0,6.3-1.2,9.8-5.8c2.3-2.9,2.9-5.2,3.5-6.9
		c1.2-1.7,2.3-4,2.9-8.1c0.6-5.8-1.2-9.8-1.7-11.5c0-1.7,0-5.2-1.2-9.2c-1.7-4.6-5.2-7.5-6.3-8.6c-1.2-1.7-2.9-3.5-5.2-4.6
		c-6.9-4.6-14.4-4-16.7-3.5c-2.3-0.6-5.8-1.2-9.8-0.6c-4.6,0.6-8.1,2.3-10.4,3.5c-4,0-9.2,0.6-15,2.9c-6.9,2.3-12.1,5.2-15.6,7.5
		c-4,0.6-9.2,2.3-14.4,5.2c-6.9,3.5-11.5,6.9-15,10.4c-4,0-9.2,1.2-15,3.5c-7.5,2.9-13.3,6.9-16.1,9.8c-5.2-0.6-12.1-0.6-21.3,1.2
		c-8.6,1.7-15,5.2-19,7.5c-4.6,0-11,0-17.3,1.2c-4.6,0.6-8.6,1.7-12.1,2.9c-4,0.6-11,0.6-17.9-1.7c-5.2-1.7-7.5-4-10.4-2.9
		c-5.2,1.7-8.1,11.5-5.2,18.5c3.5,8.1,13.3,9.8,21.3,11.5c12.7,2.3,24.2-0.6,31.7-2.9c4.6-1.2,8.1-2.3,10.4-3.5
		c4,0.6,8.6,1.2,14.4,0.6c13.8-0.6,24.8-5.8,31.1-9.8c5.2-0.6,13.8-1.7,23.1-6.9c5.2-2.9,9.2-6.9,12.1-9.8
		c4.6-0.6,12.1-2.3,19.6-6.9c4-2.3,7.5-5.2,9.8-8.1c2.9,0,8.1,0,13.8-2.3c4.6-1.7,8.1-4.6,10.4-6.3c2.3,1.2,6.3,3.5,11.5,4
		c5.2,1.2,9.8,0.6,12.7,0c-0.6,0-2.9,0.6-4,3.5C539.7,506,540.3,507.7,540.3,508.3z"/>
	<path class="st4" d="M599.7,520.4"/>
	<path class="st3" d="M457.3,192.9c1.7-0.6,4-1.2,6.3-1.2c2.3-0.6,4.6-0.6,6.9-0.6c0,1.7-0.6,4-0.6,5.8s-0.6,3.5-1.2,5.2
		c-1.2,0-2.3-0.6-3.5-0.6c-2.3-0.6-4.6-0.6-6.9-0.6C458.4,198.1,457.9,195.8,457.3,192.9z"/>
	<path class="st8" d="M471.1,190.6c1.2,1.2,1.7,1.7,2.3,2.3c2.3,2.9,2.9,4.6,5.8,8.6c0.6,1.2,1.7,1.7,1.7,2.3
		c-1.7-0.6-2.9-0.6-4.6-1.2c-2.3-0.6-4.6-0.6-6.9-1.2C470,198.1,470.5,194.7,471.1,190.6z"/>
	<path class="st3" d="M371.9,157.8c5.8-1.2,11.5-2.3,17.3-3.5c8.1-1.7,16.7-3.5,24.8-4.6c1.7,17.3,4,34,5.8,51.3
		c-6.9,0-13.8,0-21.3,0c-8.6,0.6-16.7,1.2-24.2,2.3C373.7,187.7,372.5,172.7,371.9,157.8z"/>
	<path class="st8" d="M414,149.1c8.1,1.2,14.4,3.5,17.9,5.8c5.8,2.9,9.8,6.9,13.8,10.4c2.3,2.3,4,4,5.2,5.2c2.3,5.8,4,12.1,5.8,18.5
		c1.2,4,2.3,7.5,2.9,11.5c-5.8-0.6-10.4-0.6-14.4-0.6s-9.2,0-15.6,0c-4,0-6.9,0.6-9.8,0.6C418.1,183.1,415.8,166.4,414,149.1z"/>
	<path class="st3" d="M315.4,192.4c15-2.9,30.6-5.8,45.6-8.6l17.3,54.2c-8.1,0-18.5,0.6-30,2.9c-10.4,1.7-19,4.6-25.9,7.5
		c-1.7-8.6-2.9-18.5-4-28.3C316.6,210.2,316,201,315.4,192.4z"/>
	<path class="st9" d="M352.9,164.1c13.3-2.9,27.1-5.2,40.4-8.1c-1.7,0.6-4,0.6-6.9,1.7c-1.2,0.6-6.3,2.3-12.1,8.1
		c-6.3,5.8-11,12.7-13.8,17.9c-15,2.9-30.6,5.8-45.6,8.6c2.9-5.2,9.8-16.1,22.5-23.1C343.7,166.4,348.9,164.7,352.9,164.1z"/>
	<path class="st8" d="M393.3,156c4.6,6.9,8.6,14.4,13.3,22.5c4,7.5,7.5,15,11,21.9c-4.6,1.2-11.5,2.9-17.9,8.1
		c-3.5,2.9-5.8,5.8-8.6,9.2c-3.5,4.6-8.1,11-12.7,20.2c-5.8-17.9-11.5-36.3-17.3-54.2c2.9-5.2,7.5-12.1,13.8-17.9
		c5.2-4.6,9.2-6.9,11-7.5C388.7,157.2,391.6,156.6,393.3,156z"/>
</g>
</svg>
