<?xml version="1.0" encoding="utf-8"?>
<!-- Generator: Adobe Illustrator 23.0.1, SVG Export Plug-In . SVG Version: 6.00 Build 0)  -->
<svg version="1.1" id="Layer_1" xmlns="http://www.w3.org/2000/svg" xmlns:xlink="http://www.w3.org/1999/xlink" x="0px" y="0px"
	 viewBox="0 0 222.3 223.7" style="enable-background:new 0 0 222.3 223.7;" xml:space="preserve">
<style type="text/css">
	.st0{fill:#54877B;}
	.st1{fill:#1FC3A0;}
</style>
<path class="st0" d="M218.9,62.9l-17.1-23.6c-1-1.3-2.8-1.6-4.2-0.7l-14.2,6.5c-1.9-1.9-4-3.7-6-5.4l4.2-14.6c0.7-1.4,0.2-3.2-1.2-4
	L154.6,7.3c-1.4-0.7-3.2-0.2-4,1.2l-9.5,11.5c-3.2-1-6.5-1.8-9.9-2.5L128.3,3c0-1.7-1.3-3-3-3H96.1c-1.7,0-3,1.3-3,3l-2.9,14.6
	c-3.3,0.7-6.5,1.5-9.6,2.4L71.1,8.4c-0.8-1.5-2.6-2-4.1-1.2L41.3,21.1c-1.4,0.8-2,2.6-1.2,4l4.3,14.1c-2.2,1.8-4.4,3.7-6.4,5.7
	l-13.8-6c-1.4-0.9-3.2-0.6-4.2,0.7L3.2,63.5c-1,1.4-0.6,3.2,0.7,4.2c0,0,0,0,0,0L14.7,79c-1.1,2.6-2.1,5.3-3,8.1
	c-0.2,0.8-0.8,1.9-0.2,2.7c0.4,0.4,0.9,0.8,1.4,1l16.9,7.3c0.7,0.4,1.5,0.5,2.3,0.5c0.9-0.3,1.5-1,1.6-1.9
	C46.5,54.1,91.3,30,133.9,42.8c26.2,7.9,46.6,28.6,54.2,54.9c0.2,0.6,0.1,1.1,0.7,1.4c0.3,0.1,0.7,0.1,1,0l19.7-8.6
	c0.4-0.2,0.7-0.4,0.9-0.8c0.2-0.5-0.1-0.7-0.2-1.2c-1-3.1-2.1-6.1-3.3-9l11.4-12.4C219.6,66.1,219.9,64.2,218.9,62.9
	C218.9,62.9,218.9,62.9,218.9,62.9z"/>
<path class="st1" d="M124.6,163.1h6.6c1.2,0,2.2,1,2.2,2.2v14c0,1.2-1,2.2-2.2,2.2h-6.6c-1.2,0-2.2-1-2.2-2.2v-14
	C122.4,164,123.4,163.1,124.6,163.1z"/>
<path class="st1" d="M107.7,163.1h6.6c1.2,0,2.2,1,2.2,2.2v14c0,1.2-1,2.2-2.2,2.2h-6.6c-1.2,0-2.2-1-2.2-2.2v-14
	C105.5,164,106.5,163.1,107.7,163.1z"/>
<path class="st1" d="M90.6,163.1h6.6c1.2,0,2.2,1,2.2,2.2v14c0,1.2-1,2.2-2.2,2.2h-6.6c-1.2,0-2.2-1-2.2-2.2v-14
	C88.4,164,89.4,163.1,90.6,163.1z"/>
<path class="st1" d="M145.1,141.8H76.3c-1.1,0.1-2,1-2,2.2l5.1,21.8c-0.1,1.1,0.7,2,1.8,2.2h4.7v-3.7c0-1.7,1.4-3.1,3.1-3.1h9.3
	c1.7,0,3.1,1.4,3.1,3.1v3.7h1.9v-3.7c0-1.7,1.4-3.1,3.1-3.1h9.3c1.7,0,3.1,1.4,3.1,3.1v3.7h1.6v-3.7c0-1.7,1.4-3.1,3.1-3.1h9.3
	c1.7,0,3.1,1.4,3.1,3.1v3.7h4.8c1.1-0.1,1.9-1.1,1.8-2.2l5.1-21.8C147.3,142.7,146.3,141.8,145.1,141.8
	C145.2,141.8,145.2,141.8,145.1,141.8z"/>
<path class="st1" d="M220.5,104.6l-32.8-1.4c-1,0.1-1.8,1-1.8,2v4.1h-9.6c-2.7-14.3-8.6-27.5-19.7-38c-9.7-9.2-22.1-17.7-43.6-18.7
	v-0.1c-0.7,0-1.4,0-2.1,0s-1.7,0-2.6,0v0.1c-21.5,1.2-34.2,10.1-44,19.4c-10.8,10.3-16.6,22.9-19.2,36.6h-8.7v-3.3
	c0-1-0.8-1.9-1.8-2l-32.8,1.4c-1,0-1.8,0.8-1.8,1.8v17c0,1,0.8,1.8,1.8,1.8l32.8,1.4c1-0.1,1.8-1,1.8-2v-4.1h7.2
	c-0.2,3.1-0.3,6.3-0.3,9.5c-0.1,56.9-0.6,12.1,18.6,29.4c5.4,4.9,9.9-11.4,17.9,0.1c3.2,4.6,25.4-10.9,31.3-11.1
	c6.6,1,27.6,15.5,30.7,11c8-11.6,12.5,4.8,17.9-0.1c19.2-17.2,18.7,27.5,18.6-29.4c0-2.9-0.1-5.8-0.3-8.8h8.1v3.3c0,1,0.8,1.9,1.8,2
	l32.8-1.4c1,0,1.8-0.8,1.8-1.8c0,0,0,0,0,0v-17C222.3,105.4,221.5,104.6,220.5,104.6C220.5,104.6,220.5,104.6,220.5,104.6z
	 M100.6,137.3c0,0.8-0.6,1.4-1.4,1.4H68.7c-0.8,0-1.4-0.6-1.4-1.4v-30.5c0-0.8,0.6-1.4,1.4-1.4h30.5c0.8,0,1.4,0.6,1.4,1.4V137.3z
	 M154.1,137.3c0,0.8-0.6,1.4-1.4,1.4h-30.5c-0.8,0-1.4-0.6-1.4-1.4v-30.5c0-0.8,0.6-1.4,1.4-1.4h30.5c0.8,0,1.4,0.6,1.4,1.4V137.3z"
	/>
<path class="st0" d="M196.4,132.2c-6,45.4-46.9,73.7-86,73.7s-79.1-28.4-85.3-73.6h-18c6.9,57,58.7,97.7,115.7,90.8
	c47.6-5.7,85-43.2,90.8-90.8L196.4,132.2z"/>
</svg>
