<?xml version="1.0" encoding="utf-8"?>
<!-- Generator: Adobe Illustrator 25.1.0, SVG Export Plug-In . SVG Version: 6.00 Build 0)  -->
<svg version="1.1" id="Layer_1" xmlns="http://www.w3.org/2000/svg" xmlns:xlink="http://www.w3.org/1999/xlink" x="0px" y="0px"
	 viewBox="0 0 140 140" style="enable-background:new 0 0 140 140;" xml:space="preserve">
<style type="text/css">
	.st0{fill:none;stroke:#68F3CA;stroke-width:1.1249;stroke-miterlimit:10;}
	.st1{fill:none;stroke:#68F3CA;stroke-miterlimit:10.0002;}
	.st2{fill:#68F3CA;}
	.st3{fill:#FF00AA;}
	.st4{fill:#FFFDEB;}
	.st5{fill:#231618;}
	.st6{fill:#B3B1A5;}
	.st7{fill:#48A88C;}
	.st8{fill:#5AD1AE;}
</style>
<circle class="st0" cx="70" cy="70.1" r="66.6"/>
<ellipse class="st1" cx="70" cy="70" rx="69" ry="69"/>
<g>
	<g>
		<path class="st2" d="M65.7,4.4c0.9,2.1,2.8,6.2,2.8,6.2h2.3c0,0,1.8-4.1,2.8-6.1c0.1-0.4-0.1-0.8-0.3-0.8h-7.2
			C65.8,3.7,65.6,4.1,65.7,4.4z"/>
	</g>
	<g>
		<path class="st2" d="M45.6,8.9c1.5,1.7,4.5,5,4.5,5l2.2-0.7c0,0,0.5-4.4,0.7-6.7c0-0.4-0.3-0.7-0.6-0.6l-6.8,2.2
			C45.4,8.2,45.4,8.6,45.6,8.9z"/>
	</g>
	<g>
		<path class="st2" d="M27.8,19.5c2,1.1,5.9,3.4,5.9,3.4l1.9-1.4c0,0-0.9-4.4-1.4-6.6c-0.1-0.4-0.5-0.6-0.7-0.4l-5.8,4.2
			C27.4,18.8,27.5,19.2,27.8,19.5z"/>
	</g>
	<g>
		<path class="st2" d="M14.2,34.9c2.2,0.5,6.6,1.4,6.6,1.4l1.4-1.9c0,0-2.2-3.9-3.3-5.8c-0.2-0.3-0.7-0.4-0.8-0.2l-4.2,5.8
			C13.6,34.4,13.9,34.8,14.2,34.9z"/>
	</g>
	<g>
		<path class="st2" d="M6,53.9c2.2-0.2,6.7-0.7,6.7-0.7l0.7-2.2c0,0-3.3-3-5-4.5c-0.3-0.2-0.7-0.2-0.8,0.1l-2.3,6.8
			C5.3,53.6,5.7,53.9,6,53.9z"/>
	</g>
	<g>
		<path class="st2" d="M4.1,74.4c2.1-0.9,6.2-2.8,6.2-2.8v-2.3c0,0-4.1-1.8-6.1-2.8c-0.4-0.1-0.8,0.1-0.8,0.3V74
			C3.4,74.3,3.8,74.5,4.1,74.4z"/>
	</g>
	<g>
		<path class="st2" d="M8.6,94.5c1.7-1.5,5-4.5,5-4.5l-0.7-2.2c0,0-4.4-0.5-6.7-0.7c-0.4,0-0.7,0.3-0.6,0.6l2.2,6.8
			C7.9,94.7,8.3,94.7,8.6,94.5z"/>
	</g>
	<g>
		<path class="st2" d="M19.1,112.2c1.1-2,3.4-5.9,3.4-5.9l-1.4-1.9c0,0-4.4,0.9-6.6,1.4c-0.4,0.1-0.6,0.5-0.4,0.7l4.2,5.8
			C18.5,112.6,18.9,112.5,19.1,112.2z"/>
	</g>
	<g>
		<path class="st2" d="M34.6,125.9c0.5-2.2,1.4-6.6,1.4-6.6l-1.9-1.4c0,0-3.9,2.2-5.8,3.3c-0.3,0.2-0.4,0.7-0.2,0.8l5.8,4.2
			C34.1,126.4,34.5,126.2,34.6,125.9z"/>
	</g>
	<g>
		<path class="st2" d="M53.5,134c-0.2-2.2-0.7-6.7-0.7-6.7l-2.2-0.7c0,0-3,3.3-4.5,5c-0.2,0.3-0.2,0.7,0.1,0.8l6.8,2.3
			C53.2,134.7,53.5,134.4,53.5,134z"/>
	</g>
	<g>
		<path class="st2" d="M74.1,136c-0.9-2.1-2.8-6.2-2.8-6.2H69c0,0-1.8,4.1-2.8,6.1c-0.1,0.4,0.1,0.8,0.3,0.8h7.2
			C74,136.7,74.2,136.3,74.1,136z"/>
	</g>
	<g>
		<path class="st2" d="M94.2,131.4c-1.5-1.7-4.5-5-4.5-5l-2.2,0.7c0,0-0.5,4.4-0.7,6.7c0,0.4,0.3,0.7,0.6,0.6l6.8-2.2
			C94.4,132.2,94.4,131.7,94.2,131.4z"/>
	</g>
	<g>
		<path class="st2" d="M111.9,120.9c-2-1.1-5.9-3.4-5.9-3.4l-1.9,1.4c0,0,0.9,4.4,1.4,6.6c0.1,0.4,0.5,0.6,0.7,0.4l5.8-4.2
			C112.3,121.6,112.2,121.2,111.9,120.9z"/>
	</g>
	<g>
		<path class="st2" d="M125.5,105.5c-2.2-0.5-6.6-1.4-6.6-1.4l-1.4,1.9c0,0,2.2,3.9,3.3,5.8c0.2,0.3,0.7,0.4,0.8,0.2l4.2-5.8
			C126.1,106,125.9,105.6,125.5,105.5z"/>
	</g>
	<g>
		<path class="st2" d="M133.7,86.5c-2.2,0.2-6.7,0.7-6.7,0.7l-0.7,2.2c0,0,3.3,3,5,4.5c0.3,0.2,0.7,0.2,0.8-0.1l2.3-6.8
			C134.4,86.8,134.1,86.5,133.7,86.5z"/>
	</g>
	<g>
		<path class="st2" d="M135.6,66c-2.1,0.9-6.2,2.8-6.2,2.8v2.3c0,0,4.1,1.8,6.1,2.8c0.4,0.1,0.8-0.1,0.8-0.3v-7.2
			C136.4,66.1,136,65.9,135.6,66z"/>
	</g>
	<g>
		<path class="st2" d="M131.1,45.9c-1.7,1.5-5,4.5-5,4.5l0.7,2.2c0,0,4.4,0.5,6.7,0.7c0.4,0,0.7-0.3,0.6-0.6l-2.2-6.8
			C131.9,45.7,131.4,45.7,131.1,45.9z"/>
	</g>
	<g>
		<path class="st2" d="M120.6,28.1c-1.1,2-3.4,5.9-3.4,5.9l1.4,1.9c0,0,4.4-0.9,6.6-1.4c0.4-0.1,0.6-0.5,0.4-0.7l-4.2-5.8
			C121.3,27.8,120.8,27.8,120.6,28.1z"/>
	</g>
	<g>
		<path class="st2" d="M105.1,14.5c-0.5,2.2-1.4,6.6-1.4,6.6l1.9,1.4c0,0,3.9-2.2,5.8-3.3c0.3-0.2,0.4-0.7,0.2-0.8l-5.8-4.2
			C105.6,14,105.3,14.2,105.1,14.5z"/>
	</g>
	<g>
		<path class="st2" d="M86.2,6.4c0.2,2.2,0.7,6.7,0.7,6.7l2.2,0.7c0,0,3-3.3,4.5-5c0.2-0.3,0.2-0.7-0.1-0.8l-6.8-2.3
			C86.5,5.7,86.2,6,86.2,6.4z"/>
	</g>
	<g>
		<path class="st2" d="M65.7,4.4c0.9,2.1,2.8,6.2,2.8,6.2h2.3c0,0,1.8-4.1,2.8-6.1c0.1-0.4-0.1-0.8-0.3-0.8h-7.2
			C65.8,3.7,65.6,4.1,65.7,4.4z"/>
	</g>
</g>
<path class="st3" d="M98.4,65.9"/>
<path class="st4" d="M61.6,55.7"/>
<path class="st4" d="M80.2,62.9"/>
<path class="st3" d="M78.2,46"/>
<path class="st3" d="M80,58.4"/>
<path class="st4" d="M86.7,66.9c1.2,0.5,2.2,1.1,4.3,1.8c1.7,0.6,3.2,0.9,4.2,1c-0.5-2.3-0.8-4.2-1.1-5.5c-0.5-3-0.6-3.9-0.7-4.5
	c-0.1-1.9-0.1-3.5,0-5c0.1-3.6-0.3-6.6-0.7-8.8l0,0c-0.1-1.1-0.7-4.7-5.2-9.6c-2.1-2.3-5.7-6.2-11.8-8.5c-4.3-1.6-7.8-1.6-10.7-1.6
	c-2.3,0-5.8-0.1-10,1.2c-2.1,0.6-13.6,4-15.2,12.3c-0.5,2.5,0.1,4.7,0.6,6.2c-0.6,0.3-1.3,0.7-1.9,1c-0.3,0.8-0.6,1.7-0.8,2.8
	c-0.2,1-0.2,2-0.2,2.7c0.2,2.3,0.4,4.2,0.5,5.8c0,0.4,0.1,1.1,0.3,2c0.2,0.9,0.6,1.7,0.9,2.3c-0.3,0.8-0.8,1.4-1.1,1.7
	c-0.5,0.6-1,1-1.4,1.2c-0.8,0.4-1.3,0.4-1.5,0.9c-0.4,1,1.3,2.1,2.8,4.2c1.1,1.5,1.6,2.9,1.9,3.9c0.4,0.1,0.8,0.3,1.1,0.4
	c0.5-0.5,1.7-1.6,3.5-1.8c0.7-0.1,1.2-0.1,1.7,0c0.4-0.5,1.1-0.5,1.3-0.2c0.3,0.3,0.2,0.9-0.3,1.3c0,0.6,0.1,1.3,0.1,1.9
	c1.3,0.5,2.9,0.9,4.8,1.1c5.2,0.5,9.3-1.3,11.3-2.4c-0.1-0.6-0.1-1.3-0.2-1.9c-0.3-0.5-0.5-1-0.8-1.5c-0.4-0.5-0.3-1.2,0-1.5
	c0.4-0.4,1.3-0.3,1.8,0.4c0.7-0.7,1.6-1.4,2.8-2.1c3.6-1.9,7.2-1.4,8.6-1.2c0.5-0.5,0.8-0.8,1.3-1.3c-0.3-1.5-0.6-4.6,0.9-7.9
	c0.5-1.2,1.1-2.1,1.7-2.8c0-0.1,0.1-0.5-0.1-0.9c-0.2-0.4-0.7-0.6-1.1-0.6c-0.6,0.1-1.4,0.2-2.3,0.1c-0.5,0-0.8-0.1-1.2-0.2
	c-0.3-0.1-0.6-0.3-0.8-0.4c-0.2-0.6-0.5-1.4-1.1-2.3c-0.6-0.9-1.3-1.6-1.8-2c-0.3-1-0.7-2.1-0.9-3.5c-0.3-2.3-0.2-4.2,0-5.6
	c0.5-0.1,1.1-0.3,1.8-0.3c1.1,0,1.9,0.2,2.5,0.3c-0.6-0.1-1.4-0.1-2.4,0.2c-0.4,0.1-0.7,0.3-1,0.4c0,0.9,0.1,2,0.3,3.2
	c0.3,1.7,0.8,3.2,1.3,4.3c0.4,0.6,0.8,1.2,1.3,1.9s1,1.3,1.5,1.9c3-0.2,7-0.3,8.9,0.7c0.1,0,0.1,0.1,0.1,0.1c0.5,0.3,1.8,1,3.4,2.9
	c3.2,3.8,4.2,8.1,4.6,11.2c-3.8-1.5-5.9-3-7.1-4.1c-0.4-0.3-1.2-1.2-2.6-1.9c-1.3-0.8-2.6-1.1-3.4-1.3c-0.4,0.6-1.2,2-1.2,3.9
	c0,1.3,0.3,2.3,0.6,2.9C82.6,65.6,85.1,66.3,86.7,66.9z"/>
<g>
	<path class="st5" d="M40.1,45.7c1.2-0.6,2.6-0.9,3.9-1c-1.3,0.2-2.6,0.7-3.7,1.3c-0.1,0.1-0.2,0-0.3-0.1
		C39.9,45.9,39.9,45.8,40.1,45.7C40,45.7,40,45.7,40.1,45.7z"/>
</g>
<g>
	<g>
		<path class="st5" d="M74.3,51.1c1-0.3,2-0.4,3.1-0.6c1-0.1,2-0.2,3.1-0.3c1,0,2.1,0,3.1,0.2s2,0.5,2.9,1c-0.9-0.5-1.9-0.7-2.9-0.8
			s-2,0-3,0.1c-2,0.2-4,0.7-5.8,1.4l0,0c-0.3,0.1-0.6-0.1-0.7-0.4C73.8,51.5,74,51.2,74.3,51.1L74.3,51.1z"/>
	</g>
	<g>
		<path class="st5" d="M73.7,49.4c1-0.3,2-0.4,3.1-0.6c1-0.1,2-0.2,3.1-0.3c1,0,2.1,0,3.1,0.2s2,0.5,2.9,1C85,49.2,84,49,83,48.9
			s-2,0-3,0.1c-2,0.2-4,0.7-5.8,1.4l0,0c-0.3,0.1-0.6-0.1-0.7-0.4C73.2,49.8,73.4,49.5,73.7,49.4L73.7,49.4z"/>
	</g>
	<g>
		<path class="st5" d="M73.2,47.7c1-0.3,2-0.4,3.1-0.6c1-0.1,2-0.2,3.1-0.3c1,0,2.1,0,3.1,0.2s2,0.5,2.9,1c-0.9-0.5-1.9-0.7-2.9-0.8
			s-2,0-3,0.1c-2,0.2-4,0.7-5.8,1.4l0,0c-0.3,0.1-0.6-0.1-0.7-0.4C72.7,48.2,72.8,47.8,73.2,47.7C73.1,47.7,73.2,47.7,73.2,47.7z"/>
	</g>
	<g>
		<path class="st5" d="M72.6,46c1-0.3,2-0.4,3.1-0.6c1-0.1,2-0.2,3.1-0.3c1,0,2.1,0,3.1,0.2s2,0.5,2.9,1c-0.9-0.5-1.9-0.7-2.9-0.8
			s-2,0-3,0.1c-2,0.2-4,0.7-5.8,1.4l0,0c-0.3,0.1-0.6-0.1-0.7-0.4C72.1,46.5,72.3,46.2,72.6,46L72.6,46z"/>
	</g>
	<g>
		<path class="st5" d="M72,44.4c1-0.3,2-0.4,3.1-0.6c1-0.1,2-0.2,3.1-0.3c1,0,2.1,0,3.1,0.2s2,0.5,2.9,1c-0.9-0.5-1.9-0.7-2.9-0.8
			s-2,0-3,0.1c-2,0.2-4,0.7-5.8,1.4l0,0c-0.3,0.1-0.6-0.1-0.7-0.4C71.5,44.8,71.7,44.5,72,44.4L72,44.4z"/>
	</g>
	<g>
		<path class="st5" d="M71.5,42.7c1-0.3,2-0.4,3.1-0.6c1-0.1,2-0.2,3.1-0.3c1,0,2.1,0,3.1,0.2s2,0.5,2.9,1c-0.9-0.5-1.9-0.7-2.9-0.8
			s-2,0-3,0.1c-2,0.2-4,0.7-5.8,1.4l0,0c-0.3,0.1-0.6-0.1-0.7-0.4C71,43.1,71.1,42.8,71.5,42.7C71.4,42.7,71.5,42.7,71.5,42.7z"/>
	</g>
	<g>
		<path class="st5" d="M70.9,41c1-0.3,2-0.4,3.1-0.6c1-0.1,2-0.2,3.1-0.3c1,0,2.1,0,3.1,0.2s2,0.5,2.9,1c-0.9-0.5-1.9-0.7-2.9-0.8
			s-2,0-3,0.1c-2,0.2-4,0.7-5.8,1.4l0,0c-0.3,0.1-0.6-0.1-0.7-0.4C70.4,41.4,70.6,41.1,70.9,41L70.9,41z"/>
	</g>
</g>
<g>
	<path class="st5" d="M56.8,59.1c1.5,1.5,2.8,3.3,3.7,5.1c-1.1-1.8-2.5-3.4-4.1-4.7c-0.1-0.1-0.1-0.3,0-0.4S56.7,59,56.8,59.1
		L56.8,59.1z"/>
</g>
<g>
	<path class="st5" d="M53,59.6L51.3,62l-1.5,2.6l1.3-2.7l1.6-2.5c0.1-0.1,0.2-0.1,0.3-0.1C53,59.4,53.1,59.5,53,59.6L53,59.6
		L53,59.6z"/>
</g>
<g>
	<path class="st6" d="M64.7,39.1c1.2-0.2,2.4,0.1,3.3,0.8c-1-0.6-2.2-0.7-3.3-0.4c-0.1,0-0.2,0-0.2-0.1S64.6,39.1,64.7,39.1
		L64.7,39.1z"/>
</g>
<g>
	<path class="st6" d="M65.1,39.9c1.2-0.1,2.4,0.4,3.2,1.1c-0.9-0.7-2.1-0.9-3.2-0.8c-0.1,0-0.2-0.1-0.2-0.2
		C64.9,40,65,39.9,65.1,39.9L65.1,39.9z"/>
</g>
<g>
	<path class="st6" d="M65.3,40.8c1.2,0,2.4,0.5,3.2,1.3c-0.9-0.7-2.1-1-3.2-0.9c-0.1,0-0.2-0.1-0.2-0.2
		C65.1,40.9,65.2,40.8,65.3,40.8L65.3,40.8z"/>
</g>
<g>
	<path class="st6" d="M65.3,41.7c1.2,0.1,2.3,0.6,3.1,1.5c-0.9-0.8-2-1.1-3.1-1.1c-0.1,0-0.2-0.1-0.2-0.2S65.2,41.7,65.3,41.7
		L65.3,41.7z"/>
</g>
<g>
	<path class="st6" d="M49.6,44.5l-2.3-0.4h0.1c-0.4,0.1-0.9,0.2-1.3,0.2s-0.9,0.1-1.3,0.2c0.4-0.1,0.8-0.3,1.3-0.3
		c0.4-0.1,0.8-0.2,1.3-0.3l0,0l0,0l2.3,0.3c0.1,0,0.2,0.1,0.2,0.2C49.8,44.4,49.7,44.5,49.6,44.5L49.6,44.5z"/>
</g>
<g>
	<path class="st6" d="M70,55.5c-1.7,1.9-4,3.2-6.5,3.8l0.2-0.6c0.6,0.8,1.2,1.6,1.8,2.4l0.1,0.1v0.1c-0.2,0.8-0.3,1.7-0.6,2.5
		c0-0.9,0-1.7,0.1-2.5l0.1,0.2c-0.7-0.7-1.3-1.5-2-2.3l-0.4-0.4l0.5-0.2C65.7,57.9,67.9,56.8,70,55.5z"/>
</g>
<g>
	<path class="st6" d="M41.3,62.6c0.8,0.3,1.6,0.4,2.5,0.5c0.8,0.1,1.7,0.1,2.5-0.2l0.1-0.1V63c-0.2,0.7-0.4,1.4-0.7,2.2v-0.1
		c0.2,0.3,0.5,0.5,0.8,0.8l0,0l0,0c0.1,0.4,0.1,0.9,0.2,1.4c-0.1-0.4-0.2-0.9-0.3-1.3l0,0c-0.3-0.3-0.5-0.5-0.8-0.8l0,0l0,0
		c0.2-0.7,0.4-1.4,0.7-2.2l0.1,0.1c-0.8,0.3-1.7,0.2-2.6,0.1C42.9,63.1,42,62.9,41.3,62.6z"/>
</g>
<g>
	<path class="st6" d="M77.3,55.5c-0.9,1.4-1.5,3-1.8,4.6s-0.3,3.3,0,4.9v0.3l-0.2-0.1c-2-0.4-4-0.3-6,0.2c1.9-0.8,4-1,6.1-0.5
		l-0.2,0.2c-0.4-1.7-0.3-3.4,0-5.1C75.5,58.4,76.2,56.8,77.3,55.5z"/>
</g>
<g>
	<path class="st6" d="M36.9,67.5c0.9,0.7,1.7,1.6,2.4,2.6c0.7,1,1.2,2.1,1.6,3.2h-0.1c1.6-1,3.6-1.5,5.4-1.2
		c-1.9-0.2-3.8,0.3-5.3,1.3l-0.1,0.1v-0.1c-0.4-1.1-0.9-2.2-1.5-3.2C38.5,69.2,37.8,68.3,36.9,67.5z"/>
</g>
<g>
	<path class="st6" d="M52.2,44.4c0,0.3,0,0.5,0,0.8s0,0.5,0,0.7c0,0.5,0.1,1,0.2,1.5l-0.5-0.3c0.9-0.3,1.8-0.6,2.7-0.9
		c0.9-0.3,1.8-0.8,2.6-1.3c1.7-1,3.2-2.3,4.5-3.7c-1.3,1.5-2.7,2.8-4.3,4c-0.8,0.6-1.7,1.1-2.5,1.5c-0.9,0.5-1.8,0.9-2.7,1.1
		l-0.4,0.1l-0.1-0.4c-0.1-0.5-0.1-1.1,0-1.6c0-0.3,0.1-0.5,0.2-0.8C52,44.9,52.1,44.6,52.2,44.4z"/>
</g>
<path class="st5" d="M48.5,76.6c0-0.2,0.2-1.7,0.7-1.8c0.4,0,0.9,0.9,1.2,2.2l1.5,0.2c0-0.1,0.2-2.3,0.7-2.3c0.3,0,0.7,1,1,2.5
	c0.4,0,0.9,0,1.3,0c0.1-1.6,0.4-2.8,0.8-2.9c0.4,0,0.8,1.1,1.1,2.7l1.5-0.3c0-0.3,0.2-2.7,0.6-2.7c0.4,0,0.9,2,1,2.3l1.1-0.4
	c0-0.4,0-2.8,0.6-2.9c0.4-0.1,1,1.7,1.2,2.2c-1.6,0.8-4.3,1.8-7.9,1.9C52.2,77.6,50,77.1,48.5,76.6z"/>
<path class="st4" d="M49.3,75.7c0.3,0,0.7,1.5,0.8,2.1c-0.4-0.1-0.9-0.2-1.3-0.3C48.9,76.9,49,75.7,49.3,75.7z"/>
<path class="st4" d="M52.7,76.1c0.4,0,0.7,2,0.8,2.3l-1.4-0.1C52.1,78,52.3,76.2,52.7,76.1z"/>
<path class="st4" d="M55.2,78.4c0-0.7,0.1-2.8,0.5-2.8c0.3,0,0.7,2.1,0.9,2.7C56.1,78.4,55.7,78.4,55.2,78.4z"/>
<path class="st4" d="M58.6,78c0-1.1,0-2.6,0.3-2.6s0.6,1.3,0.9,2.3L58.6,78z"/>
<path class="st4" d="M61.7,74.4c-0.3,0-0.3,1.7-0.3,2.7l1.3-0.4C62.4,75.7,62,74.4,61.7,74.4z"/>
<path class="st5" d="M49.2,47.3c-1.6-1.6-7-0.5-8.7,2.9c-1,1.9-0.4,4-0.1,5.2s0.8,3.2,2.6,4.1c1.2,0.6,2.4,0.5,3.3,0.3
	c0.5-0.1,4.2-0.6,5-2.9c0.6-1.6-0.8-2.3-1.5-6.2C49.5,48.4,49.8,47.9,49.2,47.3z"/>
<path class="st5" d="M52,50.2c0.6,0.9,1.9,2.6,4.2,3.9c1,0.5,3.6,1.9,6.8,1.2c0.7-0.2,4-0.9,5.4-3.9c0.7-1.6,0.5-3,0.4-3.6
	c-0.7-4.1-5.3-5.8-5.5-5.9c-0.7,1.4-2.4,4-5.5,6C55.5,49.3,53.4,49.9,52,50.2z"/>
<path class="st2" d="M55.7,50.1c0.8,1.6,2.3,2.6,3.9,2.4c0.1,0,2.1-0.2,2.9-1.8c0.7-1.4,0.3-3.4-1.2-4.6c-0.7,0.7-1.5,1.4-2.6,2.2
	C57.7,49.1,56.6,49.7,55.7,50.1z"/>
<path class="st3" d="M44.3,51.9c-0.6-0.2-1.2-0.2-1.5-0.2c-0.1,0.1-0.3,0.3-0.5,0.6c-0.2,0.4,0,0.8,0,0.9c0.3,0,0.8,0.1,1.2,0.3
	c0.3,0.1,0.6,0.3,0.8,0.4c-0.1,0.4-0.2,0.8-0.4,1.2c-0.1,0.3-0.3,0.6-0.4,0.8c0,0,0.1,0.6,0.6,0.9c0.4,0.2,0.8,0.1,0.8,0.1
	c0.2-0.3,0.3-0.6,0.5-0.9c0.2-0.4,0.3-0.8,0.4-1.2c0.2,0.1,0.5,0.3,0.8,0.4c0.4,0.2,0.8,0.5,1.1,0.7c0.1,0,0.4-0.1,0.7-0.4
	c0.4-0.5,0.3-1.1,0.2-1.1c-0.3-0.3-0.7-0.5-1.1-0.8c-0.3-0.2-0.7-0.4-0.9-0.6c0.1-0.5,0.3-1.2,0.3-1.9c0.1-0.6,0.1-1.1,0-1.5
	c-0.1-0.1-0.3-0.3-0.7-0.3c-0.5-0.1-0.9,0.2-1,0.3c0,0.4,0,0.9,0,1.4c-0.1,0.5-0.2,0.9-0.3,1.2C44.9,52.1,44.6,52,44.3,51.9z"/>
<g>
	<path class="st5" d="M54.1,61.9c-0.1-0.6-0.2-1.3-0.3-2c-0.8,1.7-1.6,3.1-2.1,4c-1,1.7-1.6,2.5-1.7,3.9c-0.1,0.7-0.2,2,0.6,2.6
		c0.7,0.6,2,0.4,3.2-0.4c0.2-1,0.3-1.7,0.3-2.3c0-0.7-0.1-0.8,0-1.6c0-1,0.1-1,0.2-2C54.2,63.1,54.1,62.4,54.1,61.9z"/>
	<path class="st5" d="M54.7,66.4c0,0.5,0.1,1.3,0.3,2.1c0.2,0.6,0.3,0.9,0.5,1.1c0.9,0.8,3.2,0.2,3.8-1.1c0.3-0.6,0.2-1.1,0.1-1.5
		c-0.6-2.9-3.8-6.1-4.8-7.1c0,0.1,0.1,0.2,0.1,0.4c0,0.1,0.1,0.7,0.2,1.1c0.1,1.5,0,3,0,3C54.8,65.7,54.7,65.6,54.7,66.4z"/>
</g>
<path class="st3" d="M86,80.5c-0.2,0-0.4,0-0.7,0.2c-0.4,0.2-0.6,0.5-0.7,0.6c-0.4,0-0.9,0.1-1.5,0.3c-1.3,0.3-2.3,0.8-2.6,0.9
	c-0.6,0.3-1.4,0.7-2.2,1.3c-0.9,0.1-2.1,0.4-3.4,1c-0.9,0.4-1.6,0.9-2.2,1.3c-0.6,0-1.7,0.2-2.8,0.8c-1,0.5-1.7,1.1-2.1,1.6
	c-0.5-0.1-1.6-0.3-3,0.2c-1.2,0.4-2,1.1-2.3,1.5c-0.8-0.1-1.8,0-3,0.1c-1.6,0.3-2.9,0.8-3.7,1.2c-0.2,0-1.7,0.2-2.6,1.5
	c-0.6,0.9-0.6,1.8-0.6,2.1c-0.1,0.3-0.6,1.3-0.3,2.5c0.2,1,0.8,1.6,1,1.9c0.3,0.4,1,1.2,2.2,1.6c1.6,0.6,2.9,0.1,3.3,0
	c0.7-0.1,1.5-0.3,2.5-0.6c0.9-0.3,1.6-0.7,2.2-1c0.8-0.2,1.7-0.5,2.5-0.9c0.6-0.2,1.2-0.5,1.7-0.7c0.8-0.1,1.9-0.4,3-0.8
	c0.9-0.3,1.7-0.7,2.3-1.1c0.7-0.1,1.5-0.3,2.4-0.6c0.8-0.3,1.5-0.5,2.2-0.8c0.6-0.1,1.3-0.2,2.1-0.5c0.9-0.3,1.5-0.7,2-1.1
	c0.6,0,1.7-0.1,2.8-0.6c0.8-0.4,1.4-0.9,1.8-1.2c0.3,0.2,0.7,0.5,1.4,0.7c1.1,0.3,1.9,0,2.3-0.1c-0.3,0.1-0.5,0.4-0.5,0.7
	c0,0.4,0.4,0.6,0.4,0.6c-0.1-0.1-0.4-0.3-0.8-0.3c-0.3,0-0.5,0.2-0.6,0.2c-0.5,0-1.6,0-2.7,0.6c-1.2,0.6-1.9,1.4-2.2,1.8
	c-0.7,0.2-1.4,0.4-2.2,0.7c-0.7,0.3-1.3,0.5-1.8,0.8c-0.5,0.1-1.1,0.2-1.7,0.4c-1.2,0.3-2.2,0.7-3,1.1c-0.5,0.1-1.3,0.2-2.2,0.7
	c-0.6,0.3-1,0.7-1.3,1c-0.7-0.1-1.9-0.1-3.3,0.5c-0.5,0.2-0.9,0.4-1.2,0.7c-0.8,0.2-1.8,0.4-2.8,0.9c-0.6,0.3-1.1,0.6-1.6,0.9
	c-0.3,0-1.8,0.1-2.8,1.4c-0.2,0.3-0.9,1.1-0.8,2.3c0.1,0.9,0.6,1.4,0.8,1.7c0,0.2,0,0.7,0.3,1.3c0.3,0.6,0.8,0.9,1,1
	c0.1,0.2,0.7,1.1,1.9,1.3c1.3,0.3,2.2-0.3,2.4-0.4c0.7-0.1,1.4-0.2,2.1-0.3c0.8-0.1,1.9-0.3,3.2-0.8c0.9-0.4,1.6-0.8,2.2-1.2
	c1,0,2.4-0.1,3.8-0.5c0.8-0.2,1.6-0.5,2.2-0.8c0.6-0.1,1.5-0.3,2.4-0.6c0.9-0.3,1.5-0.7,2.1-1.1c0.4,0,1.1-0.1,1.8-0.3
	c0.9-0.3,1.5-0.7,1.9-1c-0.2,0.3-0.2,0.7,0,0.9c0.2,0.3,0.5,0.3,0.5,0.3c-0.4-0.1-0.8,0.1-1,0.4s-0.3,0.7-0.1,1.1
	c-0.4,0.2-0.9,0.4-1.5,0.7c-0.8,0.4-1.4,0.9-1.8,1.3c-0.8-0.1-2.3-0.1-3.8,0.8c-0.4,0.2-0.7,0.4-0.9,0.6c-0.5-0.1-1.2-0.2-2-0.1
	c-0.4,0-1.2,0.1-2.1,0.5c-0.8,0.3-1.5,0.8-1.9,1.2c-0.3,0.1-1.2,0.4-1.9,1.2c-0.6,0.7-0.8,1.5-0.8,1.8c-0.1,0.3-0.2,1,0.1,1.8
	c0.2,0.8,0.7,1.3,0.9,1.5c0.2,1.2,0.6,1.8,1,2.2c0.5,0.4,1.4,0.8,1.8,1.3c0,0.1,0.2,0.3,0.5,0.7c0,0,0.1,0.1,0.2,0.2
	c0.5,0.5,1.1,0.8,1.6,1c0.1-0.7,0.1-1.2,0-1.6c0-0.6-0.1-1-0.3-1.5c-0.3-0.6-0.5-0.6-0.8-1.1s-0.3-0.9-0.3-1.4
	c-0.1-0.6-0.4-1.4-1.2-2.4c0.3,0,1.2-0.2,1.8-0.9c0.2-0.2,0.3-0.4,0.4-0.6c0.5,0,1.1-0.1,1.8-0.3c0.9-0.3,1.6-0.7,2-1
	c0.6,0,1.3-0.1,2.2-0.4c1.1-0.4,2-0.9,2.4-1.3c0.5,0,1.3,0,2.1-0.2c1.3-0.4,2.2-1.1,2.6-1.6c0.3-0.2,0.8-0.6,1.1-1.3
	c0.3-0.5,0.5-1,0.6-1.3c0.1-0.1,1.3-1.2,0.9-2.6c-0.1-0.6-0.5-1-0.7-1.2c0-0.3,0-0.9-0.3-1.6c-0.4-0.7-1-1.2-1.5-1.4
	c-1.2-0.4-2.7,0.1-3.7,1.4c-0.4,0-1,0-1.6,0.2s-1.1,0.4-1.4,0.6c-0.5,0.1-1.1,0.2-1.7,0.4c-0.8,0.3-1.5,0.6-2,0.9
	c-0.7,0.1-1.6,0.2-2.6,0.6c-1.2,0.4-2.1,1-2.7,1.4c-0.4,0-0.7-0.1-1.1-0.1c-2.6,0-4.6,1.1-5.9,1.9c0-0.1,0-0.6-0.3-1
	c-0.4-0.4-0.9-0.4-1-0.4c0.5-0.1,1.5-0.3,2.4-1c0.5-0.4,0.9-0.9,1.1-1.2c0.6-0.1,1.3-0.2,2.2-0.5c1-0.3,1.8-0.8,2.3-1.1
	c0.4,0,0.9-0.1,1.5-0.2c0.6-0.2,1.1-0.4,1.5-0.6c0.7,0,1.6-0.1,2.7-0.3c1.1-0.3,1.9-0.7,2.5-1.1c0.5-0.1,1.1-0.2,1.9-0.6
	c0.8-0.4,1.4-0.9,1.7-1.2c0.5,0,1.4,0,2.4-0.5s1.6-1.1,1.9-1.5c0.3,0.1,1.5,0.4,2.8-0.2c1-0.5,1.5-1.3,1.6-1.6
	c0.2-0.2,0.6-0.5,0.9-1.2c0.4-1,0-1.9-0.1-2.1c0-0.3,0.1-1.1-0.4-2c-0.4-0.8-1-1.2-1.3-1.3c-0.4-0.3-0.9-0.7-1.5-1
	c-1.9-0.9-3.7-0.5-4.4-0.3c-0.6,0.1-1.3,0.3-2.1,0.6c-1.3,0.4-2.3,0.9-3.2,1.4c-0.5,0.1-1,0.3-1.5,0.5c-0.9,0.3-1.7,0.7-2.3,1.1
	c-0.6,0.1-1.2,0.2-1.8,0.3c-1.5,0.4-2.8,1-3.8,1.5c-0.8,0.1-1.7,0.4-2.8,0.8c-0.6,0.2-1.2,0.5-1.7,0.8c-1,0.1-2.2,0.4-3.6,0.9
	c-0.6,0.2-1.2,0.5-1.7,0.8c-0.5,0-1,0.1-1.7,0.3c-0.5,0.1-1,0.3-1.3,0.5c-0.2-0.1-0.5-0.3-0.9-0.4c-0.6-0.1-1,0-1.2,0.1
	c0.1-0.1,0.3-0.3,0.4-0.7c0.1-0.3,0.1-0.6,0-0.7c0.7,0,1.5-0.2,2.4-0.4c0.9-0.3,1.7-0.6,2.3-0.9c0.7-0.1,1.6-0.3,2.5-0.6
	c0.9-0.3,1.7-0.7,2.3-1c0.9,0,2.1-0.2,3.5-0.7c1-0.4,1.9-0.8,2.5-1.2c1.1-0.2,2.3-0.6,3.8-1.2c1.1-0.5,2.1-1.1,2.8-1.6
	c1.1-0.1,2.3-0.4,3.6-0.7c1.3-0.4,2.5-0.8,3.5-1.2c0.6-0.4,1.2-0.8,1.8-1.2c0.2,0,1.1-0.2,1.7-1c0.4-0.5,0.5-0.9,0.6-1.2
	c0.2-0.3,0.4-0.7,0.5-1.4c0.1-1-0.2-1.7-0.3-2c0-0.3,0-0.9-0.2-1.6c-0.3-0.8-0.9-1.3-1.1-1.5c-0.2-0.3-0.5-0.6-0.9-0.8
	c-1.2-0.8-2.5-0.7-2.9-0.6c-0.4-0.1-1-0.2-1.7-0.1c-0.8,0.1-1.4,0.4-1.8,0.6c-0.7,0-1.6,0.1-2.6,0.5c-1.2,0.4-2.1,0.9-2.7,1.3
	c-0.7,0.1-1.6,0.4-2.5,0.9c-1.2,0.6-2,1.2-2.6,1.8c-0.7,0-1.6,0.2-2.6,0.6c-1.3,0.5-2.3,1.2-2.8,1.7c-0.9-0.1-2.1-0.1-3.7,0.2
	C61,82,59.9,82.6,59.2,83c-0.8,0-1.9,0-3,0.2c-0.8,0.1-1.5,0.3-2.1,0.5c-0.7,0.1-1.9,0.1-3.1-0.3c-0.9-0.3-1.3-0.7-1.8-0.5
	c-0.9,0.3-1.4,2-0.9,3.2c0.6,1.4,2.3,1.7,3.7,2c2.2,0.4,4.2-0.1,5.5-0.5c0.8-0.2,1.4-0.4,1.8-0.6c0.7,0.1,1.5,0.2,2.5,0.1
	c2.4-0.1,4.3-1,5.4-1.7c0.9-0.1,2.4-0.3,4-1.2c0.9-0.5,1.6-1.2,2.1-1.7c0.8-0.1,2.1-0.4,3.4-1.2c0.7-0.4,1.3-0.9,1.7-1.4
	c0.5,0,1.4,0,2.4-0.4c0.8-0.3,1.4-0.8,1.8-1.1c0.4,0.2,1.1,0.6,2,0.7c0.9,0.2,1.7,0.1,2.2,0c-0.1,0-0.5,0.1-0.7,0.6
	C85.9,80.1,86,80.4,86,80.5z"/>
<path class="st3" d="M96.3,82.6"/>
<path class="st2" d="M71.6,25.8c0.3-0.1,0.7-0.2,1.1-0.2c0.4-0.1,0.8-0.1,1.2-0.1c0,0.3-0.1,0.7-0.1,1s-0.1,0.6-0.2,0.9
	c-0.2,0-0.4-0.1-0.6-0.1c-0.4-0.1-0.8-0.1-1.2-0.1C71.8,26.7,71.7,26.3,71.6,25.8z"/>
<path class="st7" d="M74,25.4c0.2,0.2,0.3,0.3,0.4,0.4c0.4,0.5,0.5,0.8,1,1.5c0.1,0.2,0.3,0.3,0.3,0.4c-0.3-0.1-0.5-0.1-0.8-0.2
	c-0.4-0.1-0.8-0.1-1.2-0.2C73.8,26.7,73.9,26.1,74,25.4z"/>
<path class="st2" d="M56.8,19.7c1-0.2,2-0.4,3-0.6c1.4-0.3,2.9-0.6,4.3-0.8c0.3,3,0.7,5.9,1,8.9c-1.2,0-2.4,0-3.7,0
	c-1.5,0.1-2.9,0.2-4.2,0.4C57.1,24.9,56.9,22.3,56.8,19.7z"/>
<path class="st7" d="M64.1,18.2c1.4,0.2,2.5,0.6,3.1,1c1,0.5,1.7,1.2,2.4,1.8c0.4,0.4,0.7,0.7,0.9,0.9c0.4,1,0.7,2.1,1,3.2
	c0.2,0.7,0.4,1.3,0.5,2C71,27,70.2,27,69.5,27s-1.6,0-2.7,0c-0.7,0-1.2,0.1-1.7,0.1C64.8,24.1,64.4,21.2,64.1,18.2z"/>
<path class="st2" d="M47,25.7c2.6-0.5,5.3-1,7.9-1.5l3,9.4c-1.4,0-3.2,0.1-5.2,0.5c-1.8,0.3-3.3,0.8-4.5,1.3
	c-0.3-1.5-0.5-3.2-0.7-4.9C47.2,28.8,47.1,27.2,47,25.7z"/>
<path class="st8" d="M53.5,20.8c2.3-0.5,4.7-0.9,7-1.4c-0.3,0.1-0.7,0.1-1.2,0.3c-0.2,0.1-1.1,0.4-2.1,1.4c-1.1,1-1.9,2.2-2.4,3.1
	c-2.6,0.5-5.3,1-7.9,1.5c0.5-0.9,1.7-2.8,3.9-4C51.9,21.2,52.8,20.9,53.5,20.8z"/>
<path class="st7" d="M60.5,19.4c0.8,1.2,1.5,2.5,2.3,3.9c0.7,1.3,1.3,2.6,1.9,3.8c-0.8,0.2-2,0.5-3.1,1.4c-0.6,0.5-1,1-1.5,1.6
	c-0.6,0.8-1.4,1.9-2.2,3.5c-1-3.1-2-6.3-3-9.4c0.5-0.9,1.3-2.1,2.4-3.1c0.9-0.8,1.6-1.2,1.9-1.3C59.7,19.6,60.2,19.5,60.5,19.4z"/>
</svg>
